M48
; DRILL file {KiCad 8.0.5} date 2025-01-13T22:45:58-0800
; FORMAT={-:-/ absolute / metric / decimal}
; #@! TF.CreationDate,2025-01-13T22:45:58-08:00
; #@! TF.GenerationSoftware,Kicad,Pcbnew,8.0.5
; #@! TF.FileFunction,Plated,1,2,PTH
FMAT,2
METRIC
; #@! TA.AperFunction,Plated,PTH,ViaDrill
T1C0.300
; #@! TA.AperFunction,Plated,PTH,ComponentDrill
T2C1.400
%
G90
G05
T1
X145.4Y-126.4
X150.7Y-126.4
X155.8Y-126.4
X156.117Y-113.717
X160.333Y-113.74
X162.8Y-111.2
X164.0Y-94.8
X164.0Y-96.2
X164.0Y-97.6
X164.0Y-98.8
X164.0Y-100.2
X164.143Y-103.819
X166.4Y-94.8
X166.4Y-96.2
X166.4Y-98.8
X166.4Y-100.2
X166.423Y-97.519
X166.423Y-97.519
X166.423Y-97.519
X167.7Y-126.3
X168.703Y-103.819
X168.8Y-94.8
X168.8Y-96.2
X168.8Y-97.6
X168.8Y-98.8
X168.8Y-100.2
X172.9Y-126.3
T2
X123.788Y-124.149
X123.789Y-106.248
X132.788Y-117.799
X132.789Y-99.898
M30
