M48
; DRILL file {KiCad 8.0.5} date 2025-01-14T00:04:25-0800
; FORMAT={-:-/ absolute / metric / decimal}
; #@! TF.CreationDate,2025-01-14T00:04:25-08:00
; #@! TF.GenerationSoftware,Kicad,Pcbnew,8.0.5
; #@! TF.FileFunction,Plated,1,2,PTH
FMAT,2
METRIC
; #@! TA.AperFunction,Plated,PTH,ViaDrill
T1C0.300
; #@! TA.AperFunction,Plated,PTH,ComponentDrill
T2C1.400
%
G90
G05
T1
X145.3Y-127.15
X150.6Y-127.15
X155.7Y-127.15
X156.117Y-113.717
X160.333Y-113.74
X162.8Y-111.2
X164.0Y-94.8
X164.0Y-96.2
X164.0Y-97.6
X164.0Y-98.8
X164.0Y-100.2
X164.143Y-103.819
X166.4Y-94.8
X166.4Y-96.2
X166.4Y-98.8
X166.4Y-100.2
X166.423Y-97.519
X166.423Y-97.519
X166.423Y-97.519
X166.65Y-127.15
X168.703Y-103.819
X168.8Y-94.8
X168.8Y-96.2
X168.8Y-97.6
X168.8Y-98.8
X168.8Y-100.2
X171.85Y-127.15
T2
X123.784Y-122.823
X123.789Y-106.248
X132.784Y-116.473
X132.789Y-99.898
M30
