G04 #@! TF.GenerationSoftware,KiCad,Pcbnew,8.0.5*
G04 #@! TF.CreationDate,2025-01-14T00:03:47-08:00*
G04 #@! TF.ProjectId,12v converter,31327620-636f-46e7-9665-727465722e6b,rev?*
G04 #@! TF.SameCoordinates,Original*
G04 #@! TF.FileFunction,Copper,L2,Bot*
G04 #@! TF.FilePolarity,Positive*
%FSLAX46Y46*%
G04 Gerber Fmt 4.6, Leading zero omitted, Abs format (unit mm)*
G04 Created by KiCad (PCBNEW 8.0.5) date 2025-01-14 00:03:47*
%MOMM*%
%LPD*%
G01*
G04 APERTURE LIST*
G04 #@! TA.AperFunction,ComponentPad*
%ADD10R,2.100000X2.100000*%
G04 #@! TD*
G04 #@! TA.AperFunction,ComponentPad*
%ADD11C,2.100000*%
G04 #@! TD*
G04 #@! TA.AperFunction,ViaPad*
%ADD12C,0.600000*%
G04 #@! TD*
G04 #@! TA.AperFunction,Conductor*
%ADD13C,0.800000*%
G04 #@! TD*
G04 #@! TA.AperFunction,Conductor*
%ADD14C,0.200000*%
G04 #@! TD*
G04 APERTURE END LIST*
D10*
X132784364Y-116473208D03*
D11*
X123784364Y-122823208D03*
D10*
X132788785Y-99898090D03*
D11*
X123788785Y-106248090D03*
D12*
X160332793Y-113740000D03*
X156116974Y-113716974D03*
X164000000Y-98800000D03*
X168800000Y-100200000D03*
X145300000Y-127150000D03*
X164000000Y-94800000D03*
X166423221Y-97518559D03*
X166400000Y-94800000D03*
X168800000Y-98800000D03*
X150600000Y-127150000D03*
X164000000Y-96200000D03*
X171850000Y-127150000D03*
X166400000Y-96200000D03*
X166650000Y-127150000D03*
X166423221Y-97518559D03*
X168800000Y-97600000D03*
X162800000Y-111200000D03*
X166423221Y-97518559D03*
X164000000Y-100200000D03*
X155700000Y-127150000D03*
X164000000Y-97600000D03*
X168800000Y-96200000D03*
X166400000Y-100200000D03*
X166400000Y-98800000D03*
X168800000Y-94800000D03*
X164143221Y-103818560D03*
X168703220Y-103818559D03*
D13*
X160309767Y-113716974D02*
X160332793Y-113740000D01*
X156116974Y-113716974D02*
X160309767Y-113716974D01*
D14*
X164143222Y-103818559D02*
X164143221Y-103818560D01*
X168703220Y-103818559D02*
X164143222Y-103818559D01*
G04 #@! TA.AperFunction,Conductor*
G36*
X178593039Y-86267200D02*
G01*
X178638794Y-86320004D01*
X178650000Y-86371515D01*
X178650000Y-91450000D01*
X183675500Y-91450000D01*
X183742539Y-91469685D01*
X183788294Y-91522489D01*
X183799500Y-91574000D01*
X183799500Y-125326000D01*
X183779815Y-125393039D01*
X183727011Y-125438794D01*
X183675500Y-125450000D01*
X177899999Y-125450000D01*
X177850000Y-125499999D01*
X177850000Y-131075500D01*
X177830315Y-131142539D01*
X177777511Y-131188294D01*
X177726000Y-131199500D01*
X124249000Y-131199500D01*
X124181961Y-131179815D01*
X124136206Y-131127011D01*
X124125000Y-131075500D01*
X124125000Y-126000000D01*
X119235928Y-126000000D01*
X119168889Y-125980315D01*
X119123134Y-125927511D01*
X119111928Y-125876000D01*
X119111928Y-115375343D01*
X131233864Y-115375343D01*
X131233864Y-117571078D01*
X131233865Y-117571084D01*
X131240272Y-117630691D01*
X131290566Y-117765536D01*
X131290570Y-117765543D01*
X131376816Y-117880752D01*
X131376819Y-117880755D01*
X131492028Y-117967001D01*
X131492035Y-117967005D01*
X131626881Y-118017299D01*
X131626880Y-118017299D01*
X131633808Y-118018043D01*
X131686491Y-118023708D01*
X133882236Y-118023707D01*
X133941847Y-118017299D01*
X134076695Y-117967004D01*
X134191910Y-117880754D01*
X134278160Y-117765539D01*
X134328455Y-117630691D01*
X134334864Y-117571081D01*
X134334863Y-115375336D01*
X134328455Y-115315725D01*
X134278160Y-115180877D01*
X134278159Y-115180876D01*
X134278157Y-115180872D01*
X134191911Y-115065663D01*
X134191908Y-115065660D01*
X134076699Y-114979414D01*
X134076692Y-114979410D01*
X133941846Y-114929116D01*
X133941847Y-114929116D01*
X133882247Y-114922709D01*
X133882245Y-114922708D01*
X133882237Y-114922708D01*
X133882228Y-114922708D01*
X131686493Y-114922708D01*
X131686487Y-114922709D01*
X131626880Y-114929116D01*
X131492035Y-114979410D01*
X131492028Y-114979414D01*
X131376819Y-115065660D01*
X131376816Y-115065663D01*
X131290570Y-115180872D01*
X131290566Y-115180879D01*
X131240272Y-115315725D01*
X131233865Y-115375324D01*
X131233865Y-115375331D01*
X131233864Y-115375343D01*
X119111928Y-115375343D01*
X119111928Y-113628278D01*
X155216474Y-113628278D01*
X155216474Y-113805669D01*
X155251077Y-113979632D01*
X155251080Y-113979641D01*
X155318957Y-114143514D01*
X155318964Y-114143527D01*
X155417509Y-114291008D01*
X155417512Y-114291012D01*
X155542935Y-114416435D01*
X155542939Y-114416438D01*
X155690420Y-114514983D01*
X155690433Y-114514990D01*
X155813337Y-114565897D01*
X155854308Y-114582868D01*
X155854310Y-114582868D01*
X155854315Y-114582870D01*
X156028278Y-114617473D01*
X156028281Y-114617474D01*
X156028283Y-114617474D01*
X160116129Y-114617474D01*
X160140320Y-114619857D01*
X160244099Y-114640499D01*
X160244101Y-114640500D01*
X160244102Y-114640500D01*
X160421486Y-114640500D01*
X160421487Y-114640499D01*
X160595459Y-114605895D01*
X160759340Y-114538013D01*
X160906829Y-114439464D01*
X161032257Y-114314036D01*
X161130806Y-114166547D01*
X161198688Y-114002666D01*
X161233293Y-113828692D01*
X161233293Y-113651309D01*
X161198688Y-113477334D01*
X161130806Y-113313454D01*
X161130804Y-113313451D01*
X161130802Y-113313447D01*
X161032257Y-113165965D01*
X160883805Y-113017512D01*
X160883804Y-113017511D01*
X160883803Y-113017510D01*
X160824726Y-112978037D01*
X160824725Y-112978035D01*
X160736311Y-112918959D01*
X160736309Y-112918958D01*
X160654374Y-112885020D01*
X160654373Y-112885020D01*
X160572433Y-112851079D01*
X160572425Y-112851077D01*
X160398463Y-112816474D01*
X160398459Y-112816474D01*
X160398458Y-112816474D01*
X156028283Y-112816474D01*
X156028280Y-112816474D01*
X155854315Y-112851077D01*
X155854306Y-112851080D01*
X155690433Y-112918957D01*
X155690420Y-112918964D01*
X155542939Y-113017509D01*
X155542935Y-113017512D01*
X155417512Y-113142935D01*
X155417509Y-113142939D01*
X155318964Y-113290420D01*
X155318957Y-113290433D01*
X155251080Y-113454306D01*
X155251077Y-113454315D01*
X155216474Y-113628278D01*
X119111928Y-113628278D01*
X119111928Y-103818556D01*
X163337656Y-103818556D01*
X163337656Y-103818563D01*
X163357851Y-103997809D01*
X163357852Y-103997814D01*
X163417432Y-104168083D01*
X163513404Y-104320821D01*
X163513405Y-104320822D01*
X163640959Y-104448376D01*
X163640961Y-104448377D01*
X163793695Y-104544347D01*
X163793699Y-104544349D01*
X163963963Y-104603927D01*
X163963966Y-104603928D01*
X163963971Y-104603929D01*
X164143217Y-104624125D01*
X164143221Y-104624125D01*
X164143225Y-104624125D01*
X164322470Y-104603929D01*
X164322473Y-104603928D01*
X164322476Y-104603928D01*
X164492743Y-104544349D01*
X164645483Y-104448376D01*
X164645489Y-104448369D01*
X164648317Y-104446115D01*
X164650498Y-104445224D01*
X164651379Y-104444671D01*
X164651475Y-104444825D01*
X164713003Y-104419704D01*
X164725634Y-104419059D01*
X168120808Y-104419059D01*
X168187847Y-104438744D01*
X168198123Y-104446114D01*
X168200956Y-104448373D01*
X168200958Y-104448375D01*
X168353698Y-104544348D01*
X168523965Y-104603927D01*
X168523970Y-104603928D01*
X168703216Y-104624124D01*
X168703220Y-104624124D01*
X168703224Y-104624124D01*
X168882469Y-104603928D01*
X168882472Y-104603927D01*
X168882475Y-104603927D01*
X169052742Y-104544348D01*
X169205482Y-104448375D01*
X169333036Y-104320821D01*
X169429009Y-104168081D01*
X169488588Y-103997814D01*
X169508785Y-103818559D01*
X169488588Y-103639304D01*
X169429009Y-103469037D01*
X169333036Y-103316297D01*
X169205482Y-103188743D01*
X169052743Y-103092770D01*
X168882474Y-103033190D01*
X168882469Y-103033189D01*
X168703224Y-103012994D01*
X168703216Y-103012994D01*
X168523970Y-103033189D01*
X168523965Y-103033190D01*
X168353696Y-103092770D01*
X168200956Y-103188744D01*
X168198123Y-103191004D01*
X168195944Y-103191893D01*
X168195062Y-103192448D01*
X168194964Y-103192293D01*
X168133437Y-103217414D01*
X168120808Y-103218059D01*
X164725632Y-103218059D01*
X164658593Y-103198374D01*
X164648318Y-103191005D01*
X164645483Y-103188744D01*
X164492744Y-103092771D01*
X164322475Y-103033191D01*
X164322470Y-103033190D01*
X164143225Y-103012995D01*
X164143217Y-103012995D01*
X163963971Y-103033190D01*
X163963966Y-103033191D01*
X163793697Y-103092771D01*
X163640958Y-103188744D01*
X163513405Y-103316297D01*
X163417432Y-103469036D01*
X163357852Y-103639305D01*
X163357851Y-103639310D01*
X163337656Y-103818556D01*
X119111928Y-103818556D01*
X119111928Y-98800225D01*
X131238285Y-98800225D01*
X131238285Y-100995960D01*
X131238286Y-100995966D01*
X131244693Y-101055573D01*
X131294987Y-101190418D01*
X131294991Y-101190425D01*
X131381237Y-101305634D01*
X131381240Y-101305637D01*
X131496449Y-101391883D01*
X131496456Y-101391887D01*
X131631302Y-101442181D01*
X131631301Y-101442181D01*
X131638229Y-101442925D01*
X131690912Y-101448590D01*
X133886657Y-101448589D01*
X133946268Y-101442181D01*
X134081116Y-101391886D01*
X134196331Y-101305636D01*
X134282581Y-101190421D01*
X134332876Y-101055573D01*
X134339285Y-100995963D01*
X134339284Y-98800218D01*
X134332876Y-98740607D01*
X134282581Y-98605759D01*
X134282580Y-98605758D01*
X134282578Y-98605754D01*
X134196332Y-98490545D01*
X134196329Y-98490542D01*
X134081120Y-98404296D01*
X134081113Y-98404292D01*
X133946267Y-98353998D01*
X133946268Y-98353998D01*
X133886668Y-98347591D01*
X133886666Y-98347590D01*
X133886658Y-98347590D01*
X133886649Y-98347590D01*
X131690914Y-98347590D01*
X131690908Y-98347591D01*
X131631301Y-98353998D01*
X131496456Y-98404292D01*
X131496449Y-98404296D01*
X131381240Y-98490542D01*
X131381237Y-98490545D01*
X131294991Y-98605754D01*
X131294987Y-98605761D01*
X131244693Y-98740607D01*
X131238286Y-98800206D01*
X131238286Y-98800213D01*
X131238285Y-98800225D01*
X119111928Y-98800225D01*
X119111928Y-91824000D01*
X119131613Y-91756961D01*
X119184417Y-91711206D01*
X119235928Y-91700000D01*
X124700000Y-91700000D01*
X124700000Y-86371515D01*
X124719685Y-86304476D01*
X124772489Y-86258721D01*
X124824000Y-86247515D01*
X178526000Y-86247515D01*
X178593039Y-86267200D01*
G37*
G04 #@! TD.AperFunction*
M02*
