%TF.GenerationSoftware,KiCad,Pcbnew,8.0.5*%
%TF.CreationDate,2025-01-14T00:06:04-08:00*%
%TF.ProjectId,12v converter,31327620-636f-46e7-9665-727465722e6b,rev?*%
%TF.SameCoordinates,Original*%
%TF.FileFunction,Drillmap*%
%TF.FilePolarity,Positive*%
%FSLAX45Y45*%
G04 Gerber Fmt 4.5, Leading zero omitted, Abs format (unit mm)*
G04 Created by KiCad (PCBNEW 8.0.5) date 2025-01-14 00:06:04*
%MOMM*%
%LPD*%
G01*
G04 APERTURE LIST*
%ADD10C,0.200000*%
%ADD11C,0.100000*%
%ADD12C,0.140000*%
G04 APERTURE END LIST*
D10*
X11861143Y-8574702D02*
X18430000Y-8574702D01*
X18430000Y-13170000D01*
X11861143Y-13170000D01*
X11861143Y-8574702D01*
D11*
X14515000Y-12700000D02*
X14545000Y-12730000D01*
X14545000Y-12700000D02*
X14515000Y-12730000D01*
X15045000Y-12700000D02*
X15075000Y-12730000D01*
X15075000Y-12700000D02*
X15045000Y-12730000D01*
X15555000Y-12700000D02*
X15585000Y-12730000D01*
X15585000Y-12700000D02*
X15555000Y-12730000D01*
X15596697Y-11356697D02*
X15626697Y-11386697D01*
X15626697Y-11356697D02*
X15596697Y-11386697D01*
X16018279Y-11359000D02*
X16048279Y-11389000D01*
X16048279Y-11359000D02*
X16018279Y-11389000D01*
X16265000Y-11105000D02*
X16295000Y-11135000D01*
X16295000Y-11105000D02*
X16265000Y-11135000D01*
X16385000Y-9465000D02*
X16415000Y-9495000D01*
X16415000Y-9465000D02*
X16385000Y-9495000D01*
X16385000Y-9605000D02*
X16415000Y-9635000D01*
X16415000Y-9605000D02*
X16385000Y-9635000D01*
X16385000Y-9745000D02*
X16415000Y-9775000D01*
X16415000Y-9745000D02*
X16385000Y-9775000D01*
X16385000Y-9865000D02*
X16415000Y-9895000D01*
X16415000Y-9865000D02*
X16385000Y-9895000D01*
X16385000Y-10005000D02*
X16415000Y-10035000D01*
X16415000Y-10005000D02*
X16385000Y-10035000D01*
X16399322Y-10366856D02*
X16429322Y-10396856D01*
X16429322Y-10366856D02*
X16399322Y-10396856D01*
X16625000Y-9465000D02*
X16655000Y-9495000D01*
X16655000Y-9465000D02*
X16625000Y-9495000D01*
X16625000Y-9605000D02*
X16655000Y-9635000D01*
X16655000Y-9605000D02*
X16625000Y-9635000D01*
X16625000Y-9865000D02*
X16655000Y-9895000D01*
X16655000Y-9865000D02*
X16625000Y-9895000D01*
X16625000Y-10005000D02*
X16655000Y-10035000D01*
X16655000Y-10005000D02*
X16625000Y-10035000D01*
X16627322Y-9736856D02*
X16657322Y-9766856D01*
X16657322Y-9736856D02*
X16627322Y-9766856D01*
X16627322Y-9736856D02*
X16657322Y-9766856D01*
X16657322Y-9736856D02*
X16627322Y-9766856D01*
X16627322Y-9736856D02*
X16657322Y-9766856D01*
X16657322Y-9736856D02*
X16627322Y-9766856D01*
X16650000Y-12700000D02*
X16680000Y-12730000D01*
X16680000Y-12700000D02*
X16650000Y-12730000D01*
X16855322Y-10366856D02*
X16885322Y-10396856D01*
X16885322Y-10366856D02*
X16855322Y-10396856D01*
X16865000Y-9465000D02*
X16895000Y-9495000D01*
X16895000Y-9465000D02*
X16865000Y-9495000D01*
X16865000Y-9605000D02*
X16895000Y-9635000D01*
X16895000Y-9605000D02*
X16865000Y-9635000D01*
X16865000Y-9745000D02*
X16895000Y-9775000D01*
X16895000Y-9745000D02*
X16865000Y-9775000D01*
X16865000Y-9865000D02*
X16895000Y-9895000D01*
X16895000Y-9865000D02*
X16865000Y-9895000D01*
X16865000Y-10005000D02*
X16895000Y-10035000D01*
X16895000Y-10005000D02*
X16865000Y-10035000D01*
X17170000Y-12700000D02*
X17200000Y-12730000D01*
X17200000Y-12700000D02*
X17170000Y-12730000D01*
D12*
X12448436Y-12282321D02*
G75*
G02*
X12308436Y-12282321I-70000J0D01*
G01*
X12308436Y-12282321D02*
G75*
G02*
X12448436Y-12282321I70000J0D01*
G01*
X12448878Y-10624809D02*
G75*
G02*
X12308878Y-10624809I-70000J0D01*
G01*
X12308878Y-10624809D02*
G75*
G02*
X12448878Y-10624809I70000J0D01*
G01*
X13348436Y-11647321D02*
G75*
G02*
X13208436Y-11647321I-70000J0D01*
G01*
X13208436Y-11647321D02*
G75*
G02*
X13348436Y-11647321I70000J0D01*
G01*
X13348878Y-9989809D02*
G75*
G02*
X13208878Y-9989809I-70000J0D01*
G01*
X13208878Y-9989809D02*
G75*
G02*
X13348878Y-9989809I70000J0D01*
G01*
D10*
X12111920Y-13491484D02*
X12111920Y-13291484D01*
X12111920Y-13291484D02*
X12159539Y-13291484D01*
X12159539Y-13291484D02*
X12188110Y-13301008D01*
X12188110Y-13301008D02*
X12207158Y-13320055D01*
X12207158Y-13320055D02*
X12216681Y-13339103D01*
X12216681Y-13339103D02*
X12226205Y-13377198D01*
X12226205Y-13377198D02*
X12226205Y-13405769D01*
X12226205Y-13405769D02*
X12216681Y-13443865D01*
X12216681Y-13443865D02*
X12207158Y-13462912D01*
X12207158Y-13462912D02*
X12188110Y-13481960D01*
X12188110Y-13481960D02*
X12159539Y-13491484D01*
X12159539Y-13491484D02*
X12111920Y-13491484D01*
X12311920Y-13491484D02*
X12311920Y-13358150D01*
X12311920Y-13396246D02*
X12321443Y-13377198D01*
X12321443Y-13377198D02*
X12330967Y-13367674D01*
X12330967Y-13367674D02*
X12350015Y-13358150D01*
X12350015Y-13358150D02*
X12369062Y-13358150D01*
X12435729Y-13491484D02*
X12435729Y-13358150D01*
X12435729Y-13291484D02*
X12426205Y-13301008D01*
X12426205Y-13301008D02*
X12435729Y-13310531D01*
X12435729Y-13310531D02*
X12445253Y-13301008D01*
X12445253Y-13301008D02*
X12435729Y-13291484D01*
X12435729Y-13291484D02*
X12435729Y-13310531D01*
X12559539Y-13491484D02*
X12540491Y-13481960D01*
X12540491Y-13481960D02*
X12530967Y-13462912D01*
X12530967Y-13462912D02*
X12530967Y-13291484D01*
X12664300Y-13491484D02*
X12645253Y-13481960D01*
X12645253Y-13481960D02*
X12635729Y-13462912D01*
X12635729Y-13462912D02*
X12635729Y-13291484D01*
X12892872Y-13491484D02*
X12892872Y-13291484D01*
X12892872Y-13291484D02*
X12959539Y-13434341D01*
X12959539Y-13434341D02*
X13026205Y-13291484D01*
X13026205Y-13291484D02*
X13026205Y-13491484D01*
X13207158Y-13491484D02*
X13207158Y-13386722D01*
X13207158Y-13386722D02*
X13197634Y-13367674D01*
X13197634Y-13367674D02*
X13178586Y-13358150D01*
X13178586Y-13358150D02*
X13140491Y-13358150D01*
X13140491Y-13358150D02*
X13121443Y-13367674D01*
X13207158Y-13481960D02*
X13188110Y-13491484D01*
X13188110Y-13491484D02*
X13140491Y-13491484D01*
X13140491Y-13491484D02*
X13121443Y-13481960D01*
X13121443Y-13481960D02*
X13111920Y-13462912D01*
X13111920Y-13462912D02*
X13111920Y-13443865D01*
X13111920Y-13443865D02*
X13121443Y-13424817D01*
X13121443Y-13424817D02*
X13140491Y-13415293D01*
X13140491Y-13415293D02*
X13188110Y-13415293D01*
X13188110Y-13415293D02*
X13207158Y-13405769D01*
X13302396Y-13358150D02*
X13302396Y-13558150D01*
X13302396Y-13367674D02*
X13321443Y-13358150D01*
X13321443Y-13358150D02*
X13359539Y-13358150D01*
X13359539Y-13358150D02*
X13378586Y-13367674D01*
X13378586Y-13367674D02*
X13388110Y-13377198D01*
X13388110Y-13377198D02*
X13397634Y-13396246D01*
X13397634Y-13396246D02*
X13397634Y-13453388D01*
X13397634Y-13453388D02*
X13388110Y-13472436D01*
X13388110Y-13472436D02*
X13378586Y-13481960D01*
X13378586Y-13481960D02*
X13359539Y-13491484D01*
X13359539Y-13491484D02*
X13321443Y-13491484D01*
X13321443Y-13491484D02*
X13302396Y-13481960D01*
X13483348Y-13472436D02*
X13492872Y-13481960D01*
X13492872Y-13481960D02*
X13483348Y-13491484D01*
X13483348Y-13491484D02*
X13473824Y-13481960D01*
X13473824Y-13481960D02*
X13483348Y-13472436D01*
X13483348Y-13472436D02*
X13483348Y-13491484D01*
X13483348Y-13367674D02*
X13492872Y-13377198D01*
X13492872Y-13377198D02*
X13483348Y-13386722D01*
X13483348Y-13386722D02*
X13473824Y-13377198D01*
X13473824Y-13377198D02*
X13483348Y-13367674D01*
X13483348Y-13367674D02*
X13483348Y-13386722D01*
D11*
X11821143Y-13805000D02*
X11851143Y-13835000D01*
X11851143Y-13805000D02*
X11821143Y-13835000D01*
D10*
X12150015Y-13711484D02*
X12169062Y-13711484D01*
X12169062Y-13711484D02*
X12188110Y-13721008D01*
X12188110Y-13721008D02*
X12197634Y-13730531D01*
X12197634Y-13730531D02*
X12207158Y-13749579D01*
X12207158Y-13749579D02*
X12216681Y-13787674D01*
X12216681Y-13787674D02*
X12216681Y-13835293D01*
X12216681Y-13835293D02*
X12207158Y-13873388D01*
X12207158Y-13873388D02*
X12197634Y-13892436D01*
X12197634Y-13892436D02*
X12188110Y-13901960D01*
X12188110Y-13901960D02*
X12169062Y-13911484D01*
X12169062Y-13911484D02*
X12150015Y-13911484D01*
X12150015Y-13911484D02*
X12130967Y-13901960D01*
X12130967Y-13901960D02*
X12121443Y-13892436D01*
X12121443Y-13892436D02*
X12111920Y-13873388D01*
X12111920Y-13873388D02*
X12102396Y-13835293D01*
X12102396Y-13835293D02*
X12102396Y-13787674D01*
X12102396Y-13787674D02*
X12111920Y-13749579D01*
X12111920Y-13749579D02*
X12121443Y-13730531D01*
X12121443Y-13730531D02*
X12130967Y-13721008D01*
X12130967Y-13721008D02*
X12150015Y-13711484D01*
X12302396Y-13892436D02*
X12311920Y-13901960D01*
X12311920Y-13901960D02*
X12302396Y-13911484D01*
X12302396Y-13911484D02*
X12292872Y-13901960D01*
X12292872Y-13901960D02*
X12302396Y-13892436D01*
X12302396Y-13892436D02*
X12302396Y-13911484D01*
X12378586Y-13711484D02*
X12502396Y-13711484D01*
X12502396Y-13711484D02*
X12435729Y-13787674D01*
X12435729Y-13787674D02*
X12464301Y-13787674D01*
X12464301Y-13787674D02*
X12483348Y-13797198D01*
X12483348Y-13797198D02*
X12492872Y-13806722D01*
X12492872Y-13806722D02*
X12502396Y-13825769D01*
X12502396Y-13825769D02*
X12502396Y-13873388D01*
X12502396Y-13873388D02*
X12492872Y-13892436D01*
X12492872Y-13892436D02*
X12483348Y-13901960D01*
X12483348Y-13901960D02*
X12464301Y-13911484D01*
X12464301Y-13911484D02*
X12407158Y-13911484D01*
X12407158Y-13911484D02*
X12388110Y-13901960D01*
X12388110Y-13901960D02*
X12378586Y-13892436D01*
X12626205Y-13711484D02*
X12645253Y-13711484D01*
X12645253Y-13711484D02*
X12664301Y-13721008D01*
X12664301Y-13721008D02*
X12673824Y-13730531D01*
X12673824Y-13730531D02*
X12683348Y-13749579D01*
X12683348Y-13749579D02*
X12692872Y-13787674D01*
X12692872Y-13787674D02*
X12692872Y-13835293D01*
X12692872Y-13835293D02*
X12683348Y-13873388D01*
X12683348Y-13873388D02*
X12673824Y-13892436D01*
X12673824Y-13892436D02*
X12664301Y-13901960D01*
X12664301Y-13901960D02*
X12645253Y-13911484D01*
X12645253Y-13911484D02*
X12626205Y-13911484D01*
X12626205Y-13911484D02*
X12607158Y-13901960D01*
X12607158Y-13901960D02*
X12597634Y-13892436D01*
X12597634Y-13892436D02*
X12588110Y-13873388D01*
X12588110Y-13873388D02*
X12578586Y-13835293D01*
X12578586Y-13835293D02*
X12578586Y-13787674D01*
X12578586Y-13787674D02*
X12588110Y-13749579D01*
X12588110Y-13749579D02*
X12597634Y-13730531D01*
X12597634Y-13730531D02*
X12607158Y-13721008D01*
X12607158Y-13721008D02*
X12626205Y-13711484D01*
X12816681Y-13711484D02*
X12835729Y-13711484D01*
X12835729Y-13711484D02*
X12854777Y-13721008D01*
X12854777Y-13721008D02*
X12864301Y-13730531D01*
X12864301Y-13730531D02*
X12873824Y-13749579D01*
X12873824Y-13749579D02*
X12883348Y-13787674D01*
X12883348Y-13787674D02*
X12883348Y-13835293D01*
X12883348Y-13835293D02*
X12873824Y-13873388D01*
X12873824Y-13873388D02*
X12864301Y-13892436D01*
X12864301Y-13892436D02*
X12854777Y-13901960D01*
X12854777Y-13901960D02*
X12835729Y-13911484D01*
X12835729Y-13911484D02*
X12816681Y-13911484D01*
X12816681Y-13911484D02*
X12797634Y-13901960D01*
X12797634Y-13901960D02*
X12788110Y-13892436D01*
X12788110Y-13892436D02*
X12778586Y-13873388D01*
X12778586Y-13873388D02*
X12769062Y-13835293D01*
X12769062Y-13835293D02*
X12769062Y-13787674D01*
X12769062Y-13787674D02*
X12778586Y-13749579D01*
X12778586Y-13749579D02*
X12788110Y-13730531D01*
X12788110Y-13730531D02*
X12797634Y-13721008D01*
X12797634Y-13721008D02*
X12816681Y-13711484D01*
X12969062Y-13911484D02*
X12969062Y-13778150D01*
X12969062Y-13797198D02*
X12978586Y-13787674D01*
X12978586Y-13787674D02*
X12997634Y-13778150D01*
X12997634Y-13778150D02*
X13026205Y-13778150D01*
X13026205Y-13778150D02*
X13045253Y-13787674D01*
X13045253Y-13787674D02*
X13054777Y-13806722D01*
X13054777Y-13806722D02*
X13054777Y-13911484D01*
X13054777Y-13806722D02*
X13064301Y-13787674D01*
X13064301Y-13787674D02*
X13083348Y-13778150D01*
X13083348Y-13778150D02*
X13111920Y-13778150D01*
X13111920Y-13778150D02*
X13130967Y-13787674D01*
X13130967Y-13787674D02*
X13140491Y-13806722D01*
X13140491Y-13806722D02*
X13140491Y-13911484D01*
X13235729Y-13911484D02*
X13235729Y-13778150D01*
X13235729Y-13797198D02*
X13245253Y-13787674D01*
X13245253Y-13787674D02*
X13264301Y-13778150D01*
X13264301Y-13778150D02*
X13292872Y-13778150D01*
X13292872Y-13778150D02*
X13311920Y-13787674D01*
X13311920Y-13787674D02*
X13321443Y-13806722D01*
X13321443Y-13806722D02*
X13321443Y-13911484D01*
X13321443Y-13806722D02*
X13330967Y-13787674D01*
X13330967Y-13787674D02*
X13350015Y-13778150D01*
X13350015Y-13778150D02*
X13378586Y-13778150D01*
X13378586Y-13778150D02*
X13397634Y-13787674D01*
X13397634Y-13787674D02*
X13407158Y-13806722D01*
X13407158Y-13806722D02*
X13407158Y-13911484D01*
X13797634Y-13701960D02*
X13626205Y-13959103D01*
X14054777Y-13711484D02*
X14073825Y-13711484D01*
X14073825Y-13711484D02*
X14092872Y-13721008D01*
X14092872Y-13721008D02*
X14102396Y-13730531D01*
X14102396Y-13730531D02*
X14111920Y-13749579D01*
X14111920Y-13749579D02*
X14121444Y-13787674D01*
X14121444Y-13787674D02*
X14121444Y-13835293D01*
X14121444Y-13835293D02*
X14111920Y-13873388D01*
X14111920Y-13873388D02*
X14102396Y-13892436D01*
X14102396Y-13892436D02*
X14092872Y-13901960D01*
X14092872Y-13901960D02*
X14073825Y-13911484D01*
X14073825Y-13911484D02*
X14054777Y-13911484D01*
X14054777Y-13911484D02*
X14035729Y-13901960D01*
X14035729Y-13901960D02*
X14026205Y-13892436D01*
X14026205Y-13892436D02*
X14016682Y-13873388D01*
X14016682Y-13873388D02*
X14007158Y-13835293D01*
X14007158Y-13835293D02*
X14007158Y-13787674D01*
X14007158Y-13787674D02*
X14016682Y-13749579D01*
X14016682Y-13749579D02*
X14026205Y-13730531D01*
X14026205Y-13730531D02*
X14035729Y-13721008D01*
X14035729Y-13721008D02*
X14054777Y-13711484D01*
X14207158Y-13892436D02*
X14216682Y-13901960D01*
X14216682Y-13901960D02*
X14207158Y-13911484D01*
X14207158Y-13911484D02*
X14197634Y-13901960D01*
X14197634Y-13901960D02*
X14207158Y-13892436D01*
X14207158Y-13892436D02*
X14207158Y-13911484D01*
X14340491Y-13711484D02*
X14359539Y-13711484D01*
X14359539Y-13711484D02*
X14378586Y-13721008D01*
X14378586Y-13721008D02*
X14388110Y-13730531D01*
X14388110Y-13730531D02*
X14397634Y-13749579D01*
X14397634Y-13749579D02*
X14407158Y-13787674D01*
X14407158Y-13787674D02*
X14407158Y-13835293D01*
X14407158Y-13835293D02*
X14397634Y-13873388D01*
X14397634Y-13873388D02*
X14388110Y-13892436D01*
X14388110Y-13892436D02*
X14378586Y-13901960D01*
X14378586Y-13901960D02*
X14359539Y-13911484D01*
X14359539Y-13911484D02*
X14340491Y-13911484D01*
X14340491Y-13911484D02*
X14321444Y-13901960D01*
X14321444Y-13901960D02*
X14311920Y-13892436D01*
X14311920Y-13892436D02*
X14302396Y-13873388D01*
X14302396Y-13873388D02*
X14292872Y-13835293D01*
X14292872Y-13835293D02*
X14292872Y-13787674D01*
X14292872Y-13787674D02*
X14302396Y-13749579D01*
X14302396Y-13749579D02*
X14311920Y-13730531D01*
X14311920Y-13730531D02*
X14321444Y-13721008D01*
X14321444Y-13721008D02*
X14340491Y-13711484D01*
X14597634Y-13911484D02*
X14483348Y-13911484D01*
X14540491Y-13911484D02*
X14540491Y-13711484D01*
X14540491Y-13711484D02*
X14521444Y-13740055D01*
X14521444Y-13740055D02*
X14502396Y-13759103D01*
X14502396Y-13759103D02*
X14483348Y-13768627D01*
X14788110Y-13911484D02*
X14673825Y-13911484D01*
X14730967Y-13911484D02*
X14730967Y-13711484D01*
X14730967Y-13711484D02*
X14711920Y-13740055D01*
X14711920Y-13740055D02*
X14692872Y-13759103D01*
X14692872Y-13759103D02*
X14673825Y-13768627D01*
X14902396Y-13797198D02*
X14883348Y-13787674D01*
X14883348Y-13787674D02*
X14873825Y-13778150D01*
X14873825Y-13778150D02*
X14864301Y-13759103D01*
X14864301Y-13759103D02*
X14864301Y-13749579D01*
X14864301Y-13749579D02*
X14873825Y-13730531D01*
X14873825Y-13730531D02*
X14883348Y-13721008D01*
X14883348Y-13721008D02*
X14902396Y-13711484D01*
X14902396Y-13711484D02*
X14940491Y-13711484D01*
X14940491Y-13711484D02*
X14959539Y-13721008D01*
X14959539Y-13721008D02*
X14969063Y-13730531D01*
X14969063Y-13730531D02*
X14978586Y-13749579D01*
X14978586Y-13749579D02*
X14978586Y-13759103D01*
X14978586Y-13759103D02*
X14969063Y-13778150D01*
X14969063Y-13778150D02*
X14959539Y-13787674D01*
X14959539Y-13787674D02*
X14940491Y-13797198D01*
X14940491Y-13797198D02*
X14902396Y-13797198D01*
X14902396Y-13797198D02*
X14883348Y-13806722D01*
X14883348Y-13806722D02*
X14873825Y-13816246D01*
X14873825Y-13816246D02*
X14864301Y-13835293D01*
X14864301Y-13835293D02*
X14864301Y-13873388D01*
X14864301Y-13873388D02*
X14873825Y-13892436D01*
X14873825Y-13892436D02*
X14883348Y-13901960D01*
X14883348Y-13901960D02*
X14902396Y-13911484D01*
X14902396Y-13911484D02*
X14940491Y-13911484D01*
X14940491Y-13911484D02*
X14959539Y-13901960D01*
X14959539Y-13901960D02*
X14969063Y-13892436D01*
X14969063Y-13892436D02*
X14978586Y-13873388D01*
X14978586Y-13873388D02*
X14978586Y-13835293D01*
X14978586Y-13835293D02*
X14969063Y-13816246D01*
X14969063Y-13816246D02*
X14959539Y-13806722D01*
X14959539Y-13806722D02*
X14940491Y-13797198D01*
X15054777Y-13711484D02*
X15054777Y-13749579D01*
X15130967Y-13711484D02*
X15130967Y-13749579D01*
X15426206Y-13987674D02*
X15416682Y-13978150D01*
X15416682Y-13978150D02*
X15397634Y-13949579D01*
X15397634Y-13949579D02*
X15388110Y-13930531D01*
X15388110Y-13930531D02*
X15378587Y-13901960D01*
X15378587Y-13901960D02*
X15369063Y-13854341D01*
X15369063Y-13854341D02*
X15369063Y-13816246D01*
X15369063Y-13816246D02*
X15378587Y-13768627D01*
X15378587Y-13768627D02*
X15388110Y-13740055D01*
X15388110Y-13740055D02*
X15397634Y-13721008D01*
X15397634Y-13721008D02*
X15416682Y-13692436D01*
X15416682Y-13692436D02*
X15426206Y-13682912D01*
X15492872Y-13730531D02*
X15502396Y-13721008D01*
X15502396Y-13721008D02*
X15521444Y-13711484D01*
X15521444Y-13711484D02*
X15569063Y-13711484D01*
X15569063Y-13711484D02*
X15588110Y-13721008D01*
X15588110Y-13721008D02*
X15597634Y-13730531D01*
X15597634Y-13730531D02*
X15607158Y-13749579D01*
X15607158Y-13749579D02*
X15607158Y-13768627D01*
X15607158Y-13768627D02*
X15597634Y-13797198D01*
X15597634Y-13797198D02*
X15483348Y-13911484D01*
X15483348Y-13911484D02*
X15607158Y-13911484D01*
X15673825Y-13711484D02*
X15807158Y-13711484D01*
X15807158Y-13711484D02*
X15721444Y-13911484D01*
X16035729Y-13911484D02*
X16035729Y-13711484D01*
X16121444Y-13911484D02*
X16121444Y-13806722D01*
X16121444Y-13806722D02*
X16111920Y-13787674D01*
X16111920Y-13787674D02*
X16092872Y-13778150D01*
X16092872Y-13778150D02*
X16064301Y-13778150D01*
X16064301Y-13778150D02*
X16045253Y-13787674D01*
X16045253Y-13787674D02*
X16035729Y-13797198D01*
X16245253Y-13911484D02*
X16226206Y-13901960D01*
X16226206Y-13901960D02*
X16216682Y-13892436D01*
X16216682Y-13892436D02*
X16207158Y-13873388D01*
X16207158Y-13873388D02*
X16207158Y-13816246D01*
X16207158Y-13816246D02*
X16216682Y-13797198D01*
X16216682Y-13797198D02*
X16226206Y-13787674D01*
X16226206Y-13787674D02*
X16245253Y-13778150D01*
X16245253Y-13778150D02*
X16273825Y-13778150D01*
X16273825Y-13778150D02*
X16292872Y-13787674D01*
X16292872Y-13787674D02*
X16302396Y-13797198D01*
X16302396Y-13797198D02*
X16311920Y-13816246D01*
X16311920Y-13816246D02*
X16311920Y-13873388D01*
X16311920Y-13873388D02*
X16302396Y-13892436D01*
X16302396Y-13892436D02*
X16292872Y-13901960D01*
X16292872Y-13901960D02*
X16273825Y-13911484D01*
X16273825Y-13911484D02*
X16245253Y-13911484D01*
X16426206Y-13911484D02*
X16407158Y-13901960D01*
X16407158Y-13901960D02*
X16397634Y-13882912D01*
X16397634Y-13882912D02*
X16397634Y-13711484D01*
X16578587Y-13901960D02*
X16559539Y-13911484D01*
X16559539Y-13911484D02*
X16521444Y-13911484D01*
X16521444Y-13911484D02*
X16502396Y-13901960D01*
X16502396Y-13901960D02*
X16492872Y-13882912D01*
X16492872Y-13882912D02*
X16492872Y-13806722D01*
X16492872Y-13806722D02*
X16502396Y-13787674D01*
X16502396Y-13787674D02*
X16521444Y-13778150D01*
X16521444Y-13778150D02*
X16559539Y-13778150D01*
X16559539Y-13778150D02*
X16578587Y-13787674D01*
X16578587Y-13787674D02*
X16588110Y-13806722D01*
X16588110Y-13806722D02*
X16588110Y-13825769D01*
X16588110Y-13825769D02*
X16492872Y-13844817D01*
X16664301Y-13901960D02*
X16683349Y-13911484D01*
X16683349Y-13911484D02*
X16721444Y-13911484D01*
X16721444Y-13911484D02*
X16740491Y-13901960D01*
X16740491Y-13901960D02*
X16750015Y-13882912D01*
X16750015Y-13882912D02*
X16750015Y-13873388D01*
X16750015Y-13873388D02*
X16740491Y-13854341D01*
X16740491Y-13854341D02*
X16721444Y-13844817D01*
X16721444Y-13844817D02*
X16692872Y-13844817D01*
X16692872Y-13844817D02*
X16673825Y-13835293D01*
X16673825Y-13835293D02*
X16664301Y-13816246D01*
X16664301Y-13816246D02*
X16664301Y-13806722D01*
X16664301Y-13806722D02*
X16673825Y-13787674D01*
X16673825Y-13787674D02*
X16692872Y-13778150D01*
X16692872Y-13778150D02*
X16721444Y-13778150D01*
X16721444Y-13778150D02*
X16740491Y-13787674D01*
X16816682Y-13987674D02*
X16826206Y-13978150D01*
X16826206Y-13978150D02*
X16845253Y-13949579D01*
X16845253Y-13949579D02*
X16854777Y-13930531D01*
X16854777Y-13930531D02*
X16864301Y-13901960D01*
X16864301Y-13901960D02*
X16873825Y-13854341D01*
X16873825Y-13854341D02*
X16873825Y-13816246D01*
X16873825Y-13816246D02*
X16864301Y-13768627D01*
X16864301Y-13768627D02*
X16854777Y-13740055D01*
X16854777Y-13740055D02*
X16845253Y-13721008D01*
X16845253Y-13721008D02*
X16826206Y-13692436D01*
X16826206Y-13692436D02*
X16816682Y-13682912D01*
D12*
X11851143Y-14084000D02*
G75*
G02*
X11711143Y-14084000I-70000J0D01*
G01*
X11711143Y-14084000D02*
G75*
G02*
X11851143Y-14084000I70000J0D01*
G01*
D10*
X12216681Y-14175484D02*
X12102396Y-14175484D01*
X12159539Y-14175484D02*
X12159539Y-13975484D01*
X12159539Y-13975484D02*
X12140491Y-14004055D01*
X12140491Y-14004055D02*
X12121443Y-14023103D01*
X12121443Y-14023103D02*
X12102396Y-14032627D01*
X12302396Y-14156436D02*
X12311920Y-14165960D01*
X12311920Y-14165960D02*
X12302396Y-14175484D01*
X12302396Y-14175484D02*
X12292872Y-14165960D01*
X12292872Y-14165960D02*
X12302396Y-14156436D01*
X12302396Y-14156436D02*
X12302396Y-14175484D01*
X12483348Y-14042150D02*
X12483348Y-14175484D01*
X12435729Y-13965960D02*
X12388110Y-14108817D01*
X12388110Y-14108817D02*
X12511920Y-14108817D01*
X12626205Y-13975484D02*
X12645253Y-13975484D01*
X12645253Y-13975484D02*
X12664301Y-13985008D01*
X12664301Y-13985008D02*
X12673824Y-13994531D01*
X12673824Y-13994531D02*
X12683348Y-14013579D01*
X12683348Y-14013579D02*
X12692872Y-14051674D01*
X12692872Y-14051674D02*
X12692872Y-14099293D01*
X12692872Y-14099293D02*
X12683348Y-14137388D01*
X12683348Y-14137388D02*
X12673824Y-14156436D01*
X12673824Y-14156436D02*
X12664301Y-14165960D01*
X12664301Y-14165960D02*
X12645253Y-14175484D01*
X12645253Y-14175484D02*
X12626205Y-14175484D01*
X12626205Y-14175484D02*
X12607158Y-14165960D01*
X12607158Y-14165960D02*
X12597634Y-14156436D01*
X12597634Y-14156436D02*
X12588110Y-14137388D01*
X12588110Y-14137388D02*
X12578586Y-14099293D01*
X12578586Y-14099293D02*
X12578586Y-14051674D01*
X12578586Y-14051674D02*
X12588110Y-14013579D01*
X12588110Y-14013579D02*
X12597634Y-13994531D01*
X12597634Y-13994531D02*
X12607158Y-13985008D01*
X12607158Y-13985008D02*
X12626205Y-13975484D01*
X12816681Y-13975484D02*
X12835729Y-13975484D01*
X12835729Y-13975484D02*
X12854777Y-13985008D01*
X12854777Y-13985008D02*
X12864301Y-13994531D01*
X12864301Y-13994531D02*
X12873824Y-14013579D01*
X12873824Y-14013579D02*
X12883348Y-14051674D01*
X12883348Y-14051674D02*
X12883348Y-14099293D01*
X12883348Y-14099293D02*
X12873824Y-14137388D01*
X12873824Y-14137388D02*
X12864301Y-14156436D01*
X12864301Y-14156436D02*
X12854777Y-14165960D01*
X12854777Y-14165960D02*
X12835729Y-14175484D01*
X12835729Y-14175484D02*
X12816681Y-14175484D01*
X12816681Y-14175484D02*
X12797634Y-14165960D01*
X12797634Y-14165960D02*
X12788110Y-14156436D01*
X12788110Y-14156436D02*
X12778586Y-14137388D01*
X12778586Y-14137388D02*
X12769062Y-14099293D01*
X12769062Y-14099293D02*
X12769062Y-14051674D01*
X12769062Y-14051674D02*
X12778586Y-14013579D01*
X12778586Y-14013579D02*
X12788110Y-13994531D01*
X12788110Y-13994531D02*
X12797634Y-13985008D01*
X12797634Y-13985008D02*
X12816681Y-13975484D01*
X12969062Y-14175484D02*
X12969062Y-14042150D01*
X12969062Y-14061198D02*
X12978586Y-14051674D01*
X12978586Y-14051674D02*
X12997634Y-14042150D01*
X12997634Y-14042150D02*
X13026205Y-14042150D01*
X13026205Y-14042150D02*
X13045253Y-14051674D01*
X13045253Y-14051674D02*
X13054777Y-14070722D01*
X13054777Y-14070722D02*
X13054777Y-14175484D01*
X13054777Y-14070722D02*
X13064301Y-14051674D01*
X13064301Y-14051674D02*
X13083348Y-14042150D01*
X13083348Y-14042150D02*
X13111920Y-14042150D01*
X13111920Y-14042150D02*
X13130967Y-14051674D01*
X13130967Y-14051674D02*
X13140491Y-14070722D01*
X13140491Y-14070722D02*
X13140491Y-14175484D01*
X13235729Y-14175484D02*
X13235729Y-14042150D01*
X13235729Y-14061198D02*
X13245253Y-14051674D01*
X13245253Y-14051674D02*
X13264301Y-14042150D01*
X13264301Y-14042150D02*
X13292872Y-14042150D01*
X13292872Y-14042150D02*
X13311920Y-14051674D01*
X13311920Y-14051674D02*
X13321443Y-14070722D01*
X13321443Y-14070722D02*
X13321443Y-14175484D01*
X13321443Y-14070722D02*
X13330967Y-14051674D01*
X13330967Y-14051674D02*
X13350015Y-14042150D01*
X13350015Y-14042150D02*
X13378586Y-14042150D01*
X13378586Y-14042150D02*
X13397634Y-14051674D01*
X13397634Y-14051674D02*
X13407158Y-14070722D01*
X13407158Y-14070722D02*
X13407158Y-14175484D01*
X13797634Y-13965960D02*
X13626205Y-14223103D01*
X14054777Y-13975484D02*
X14073825Y-13975484D01*
X14073825Y-13975484D02*
X14092872Y-13985008D01*
X14092872Y-13985008D02*
X14102396Y-13994531D01*
X14102396Y-13994531D02*
X14111920Y-14013579D01*
X14111920Y-14013579D02*
X14121444Y-14051674D01*
X14121444Y-14051674D02*
X14121444Y-14099293D01*
X14121444Y-14099293D02*
X14111920Y-14137388D01*
X14111920Y-14137388D02*
X14102396Y-14156436D01*
X14102396Y-14156436D02*
X14092872Y-14165960D01*
X14092872Y-14165960D02*
X14073825Y-14175484D01*
X14073825Y-14175484D02*
X14054777Y-14175484D01*
X14054777Y-14175484D02*
X14035729Y-14165960D01*
X14035729Y-14165960D02*
X14026205Y-14156436D01*
X14026205Y-14156436D02*
X14016682Y-14137388D01*
X14016682Y-14137388D02*
X14007158Y-14099293D01*
X14007158Y-14099293D02*
X14007158Y-14051674D01*
X14007158Y-14051674D02*
X14016682Y-14013579D01*
X14016682Y-14013579D02*
X14026205Y-13994531D01*
X14026205Y-13994531D02*
X14035729Y-13985008D01*
X14035729Y-13985008D02*
X14054777Y-13975484D01*
X14207158Y-14156436D02*
X14216682Y-14165960D01*
X14216682Y-14165960D02*
X14207158Y-14175484D01*
X14207158Y-14175484D02*
X14197634Y-14165960D01*
X14197634Y-14165960D02*
X14207158Y-14156436D01*
X14207158Y-14156436D02*
X14207158Y-14175484D01*
X14340491Y-13975484D02*
X14359539Y-13975484D01*
X14359539Y-13975484D02*
X14378586Y-13985008D01*
X14378586Y-13985008D02*
X14388110Y-13994531D01*
X14388110Y-13994531D02*
X14397634Y-14013579D01*
X14397634Y-14013579D02*
X14407158Y-14051674D01*
X14407158Y-14051674D02*
X14407158Y-14099293D01*
X14407158Y-14099293D02*
X14397634Y-14137388D01*
X14397634Y-14137388D02*
X14388110Y-14156436D01*
X14388110Y-14156436D02*
X14378586Y-14165960D01*
X14378586Y-14165960D02*
X14359539Y-14175484D01*
X14359539Y-14175484D02*
X14340491Y-14175484D01*
X14340491Y-14175484D02*
X14321444Y-14165960D01*
X14321444Y-14165960D02*
X14311920Y-14156436D01*
X14311920Y-14156436D02*
X14302396Y-14137388D01*
X14302396Y-14137388D02*
X14292872Y-14099293D01*
X14292872Y-14099293D02*
X14292872Y-14051674D01*
X14292872Y-14051674D02*
X14302396Y-14013579D01*
X14302396Y-14013579D02*
X14311920Y-13994531D01*
X14311920Y-13994531D02*
X14321444Y-13985008D01*
X14321444Y-13985008D02*
X14340491Y-13975484D01*
X14588110Y-13975484D02*
X14492872Y-13975484D01*
X14492872Y-13975484D02*
X14483348Y-14070722D01*
X14483348Y-14070722D02*
X14492872Y-14061198D01*
X14492872Y-14061198D02*
X14511920Y-14051674D01*
X14511920Y-14051674D02*
X14559539Y-14051674D01*
X14559539Y-14051674D02*
X14578586Y-14061198D01*
X14578586Y-14061198D02*
X14588110Y-14070722D01*
X14588110Y-14070722D02*
X14597634Y-14089769D01*
X14597634Y-14089769D02*
X14597634Y-14137388D01*
X14597634Y-14137388D02*
X14588110Y-14156436D01*
X14588110Y-14156436D02*
X14578586Y-14165960D01*
X14578586Y-14165960D02*
X14559539Y-14175484D01*
X14559539Y-14175484D02*
X14511920Y-14175484D01*
X14511920Y-14175484D02*
X14492872Y-14165960D01*
X14492872Y-14165960D02*
X14483348Y-14156436D01*
X14778586Y-13975484D02*
X14683348Y-13975484D01*
X14683348Y-13975484D02*
X14673825Y-14070722D01*
X14673825Y-14070722D02*
X14683348Y-14061198D01*
X14683348Y-14061198D02*
X14702396Y-14051674D01*
X14702396Y-14051674D02*
X14750015Y-14051674D01*
X14750015Y-14051674D02*
X14769063Y-14061198D01*
X14769063Y-14061198D02*
X14778586Y-14070722D01*
X14778586Y-14070722D02*
X14788110Y-14089769D01*
X14788110Y-14089769D02*
X14788110Y-14137388D01*
X14788110Y-14137388D02*
X14778586Y-14156436D01*
X14778586Y-14156436D02*
X14769063Y-14165960D01*
X14769063Y-14165960D02*
X14750015Y-14175484D01*
X14750015Y-14175484D02*
X14702396Y-14175484D01*
X14702396Y-14175484D02*
X14683348Y-14165960D01*
X14683348Y-14165960D02*
X14673825Y-14156436D01*
X14978586Y-14175484D02*
X14864301Y-14175484D01*
X14921444Y-14175484D02*
X14921444Y-13975484D01*
X14921444Y-13975484D02*
X14902396Y-14004055D01*
X14902396Y-14004055D02*
X14883348Y-14023103D01*
X14883348Y-14023103D02*
X14864301Y-14032627D01*
X15054777Y-13975484D02*
X15054777Y-14013579D01*
X15130967Y-13975484D02*
X15130967Y-14013579D01*
X15426206Y-14251674D02*
X15416682Y-14242150D01*
X15416682Y-14242150D02*
X15397634Y-14213579D01*
X15397634Y-14213579D02*
X15388110Y-14194531D01*
X15388110Y-14194531D02*
X15378587Y-14165960D01*
X15378587Y-14165960D02*
X15369063Y-14118341D01*
X15369063Y-14118341D02*
X15369063Y-14080246D01*
X15369063Y-14080246D02*
X15378587Y-14032627D01*
X15378587Y-14032627D02*
X15388110Y-14004055D01*
X15388110Y-14004055D02*
X15397634Y-13985008D01*
X15397634Y-13985008D02*
X15416682Y-13956436D01*
X15416682Y-13956436D02*
X15426206Y-13946912D01*
X15588110Y-14042150D02*
X15588110Y-14175484D01*
X15540491Y-13965960D02*
X15492872Y-14108817D01*
X15492872Y-14108817D02*
X15616682Y-14108817D01*
X15845253Y-14175484D02*
X15845253Y-13975484D01*
X15930968Y-14175484D02*
X15930968Y-14070722D01*
X15930968Y-14070722D02*
X15921444Y-14051674D01*
X15921444Y-14051674D02*
X15902396Y-14042150D01*
X15902396Y-14042150D02*
X15873825Y-14042150D01*
X15873825Y-14042150D02*
X15854777Y-14051674D01*
X15854777Y-14051674D02*
X15845253Y-14061198D01*
X16054777Y-14175484D02*
X16035729Y-14165960D01*
X16035729Y-14165960D02*
X16026206Y-14156436D01*
X16026206Y-14156436D02*
X16016682Y-14137388D01*
X16016682Y-14137388D02*
X16016682Y-14080246D01*
X16016682Y-14080246D02*
X16026206Y-14061198D01*
X16026206Y-14061198D02*
X16035729Y-14051674D01*
X16035729Y-14051674D02*
X16054777Y-14042150D01*
X16054777Y-14042150D02*
X16083349Y-14042150D01*
X16083349Y-14042150D02*
X16102396Y-14051674D01*
X16102396Y-14051674D02*
X16111920Y-14061198D01*
X16111920Y-14061198D02*
X16121444Y-14080246D01*
X16121444Y-14080246D02*
X16121444Y-14137388D01*
X16121444Y-14137388D02*
X16111920Y-14156436D01*
X16111920Y-14156436D02*
X16102396Y-14165960D01*
X16102396Y-14165960D02*
X16083349Y-14175484D01*
X16083349Y-14175484D02*
X16054777Y-14175484D01*
X16235729Y-14175484D02*
X16216682Y-14165960D01*
X16216682Y-14165960D02*
X16207158Y-14146912D01*
X16207158Y-14146912D02*
X16207158Y-13975484D01*
X16388110Y-14165960D02*
X16369063Y-14175484D01*
X16369063Y-14175484D02*
X16330968Y-14175484D01*
X16330968Y-14175484D02*
X16311920Y-14165960D01*
X16311920Y-14165960D02*
X16302396Y-14146912D01*
X16302396Y-14146912D02*
X16302396Y-14070722D01*
X16302396Y-14070722D02*
X16311920Y-14051674D01*
X16311920Y-14051674D02*
X16330968Y-14042150D01*
X16330968Y-14042150D02*
X16369063Y-14042150D01*
X16369063Y-14042150D02*
X16388110Y-14051674D01*
X16388110Y-14051674D02*
X16397634Y-14070722D01*
X16397634Y-14070722D02*
X16397634Y-14089769D01*
X16397634Y-14089769D02*
X16302396Y-14108817D01*
X16473825Y-14165960D02*
X16492872Y-14175484D01*
X16492872Y-14175484D02*
X16530968Y-14175484D01*
X16530968Y-14175484D02*
X16550015Y-14165960D01*
X16550015Y-14165960D02*
X16559539Y-14146912D01*
X16559539Y-14146912D02*
X16559539Y-14137388D01*
X16559539Y-14137388D02*
X16550015Y-14118341D01*
X16550015Y-14118341D02*
X16530968Y-14108817D01*
X16530968Y-14108817D02*
X16502396Y-14108817D01*
X16502396Y-14108817D02*
X16483349Y-14099293D01*
X16483349Y-14099293D02*
X16473825Y-14080246D01*
X16473825Y-14080246D02*
X16473825Y-14070722D01*
X16473825Y-14070722D02*
X16483349Y-14051674D01*
X16483349Y-14051674D02*
X16502396Y-14042150D01*
X16502396Y-14042150D02*
X16530968Y-14042150D01*
X16530968Y-14042150D02*
X16550015Y-14051674D01*
X16626206Y-14251674D02*
X16635730Y-14242150D01*
X16635730Y-14242150D02*
X16654777Y-14213579D01*
X16654777Y-14213579D02*
X16664301Y-14194531D01*
X16664301Y-14194531D02*
X16673825Y-14165960D01*
X16673825Y-14165960D02*
X16683349Y-14118341D01*
X16683349Y-14118341D02*
X16683349Y-14080246D01*
X16683349Y-14080246D02*
X16673825Y-14032627D01*
X16673825Y-14032627D02*
X16664301Y-14004055D01*
X16664301Y-14004055D02*
X16654777Y-13985008D01*
X16654777Y-13985008D02*
X16635730Y-13956436D01*
X16635730Y-13956436D02*
X16626206Y-13946912D01*
M02*
