G04 #@! TF.GenerationSoftware,KiCad,Pcbnew,8.0.5*
G04 #@! TF.CreationDate,2025-01-13T22:45:19-08:00*
G04 #@! TF.ProjectId,12v converter,31327620-636f-46e7-9665-727465722e6b,rev?*
G04 #@! TF.SameCoordinates,Original*
G04 #@! TF.FileFunction,Copper,L1,Top*
G04 #@! TF.FilePolarity,Positive*
%FSLAX46Y46*%
G04 Gerber Fmt 4.6, Leading zero omitted, Abs format (unit mm)*
G04 Created by KiCad (PCBNEW 8.0.5) date 2025-01-13 22:45:19*
%MOMM*%
%LPD*%
G01*
G04 APERTURE LIST*
G04 Aperture macros list*
%AMRoundRect*
0 Rectangle with rounded corners*
0 $1 Rounding radius*
0 $2 $3 $4 $5 $6 $7 $8 $9 X,Y pos of 4 corners*
0 Add a 4 corners polygon primitive as box body*
4,1,4,$2,$3,$4,$5,$6,$7,$8,$9,$2,$3,0*
0 Add four circle primitives for the rounded corners*
1,1,$1+$1,$2,$3*
1,1,$1+$1,$4,$5*
1,1,$1+$1,$6,$7*
1,1,$1+$1,$8,$9*
0 Add four rect primitives between the rounded corners*
20,1,$1+$1,$2,$3,$4,$5,0*
20,1,$1+$1,$4,$5,$6,$7,0*
20,1,$1+$1,$6,$7,$8,$9,0*
20,1,$1+$1,$8,$9,$2,$3,0*%
G04 Aperture macros list end*
G04 #@! TA.AperFunction,SMDPad,CuDef*
%ADD10RoundRect,0.200000X-2.100000X-0.200000X2.100000X-0.200000X2.100000X0.200000X-2.100000X0.200000X0*%
G04 #@! TD*
G04 #@! TA.AperFunction,SMDPad,CuDef*
%ADD11RoundRect,0.250000X-2.025000X-2.375000X2.025000X-2.375000X2.025000X2.375000X-2.025000X2.375000X0*%
G04 #@! TD*
G04 #@! TA.AperFunction,SMDPad,CuDef*
%ADD12RoundRect,0.250002X-4.449998X-5.149998X4.449998X-5.149998X4.449998X5.149998X-4.449998X5.149998X0*%
G04 #@! TD*
G04 #@! TA.AperFunction,ComponentPad*
%ADD13C,2.100000*%
G04 #@! TD*
G04 #@! TA.AperFunction,ComponentPad*
%ADD14R,2.100000X2.100000*%
G04 #@! TD*
G04 #@! TA.AperFunction,SMDPad,CuDef*
%ADD15RoundRect,0.250000X-1.025000X0.875000X-1.025000X-0.875000X1.025000X-0.875000X1.025000X0.875000X0*%
G04 #@! TD*
G04 #@! TA.AperFunction,SMDPad,CuDef*
%ADD16R,4.500000X5.000000*%
G04 #@! TD*
G04 #@! TA.AperFunction,SMDPad,CuDef*
%ADD17R,1.000000X1.000000*%
G04 #@! TD*
G04 #@! TA.AperFunction,SMDPad,CuDef*
%ADD18RoundRect,0.237500X-0.237500X0.300000X-0.237500X-0.300000X0.237500X-0.300000X0.237500X0.300000X0*%
G04 #@! TD*
G04 #@! TA.AperFunction,SMDPad,CuDef*
%ADD19RoundRect,0.250000X0.350000X-0.850000X0.350000X0.850000X-0.350000X0.850000X-0.350000X-0.850000X0*%
G04 #@! TD*
G04 #@! TA.AperFunction,SMDPad,CuDef*
%ADD20RoundRect,0.250000X1.125000X-1.275000X1.125000X1.275000X-1.125000X1.275000X-1.125000X-1.275000X0*%
G04 #@! TD*
G04 #@! TA.AperFunction,SMDPad,CuDef*
%ADD21RoundRect,0.249997X2.650003X-2.950003X2.650003X2.950003X-2.650003X2.950003X-2.650003X-2.950003X0*%
G04 #@! TD*
G04 #@! TA.AperFunction,ViaPad*
%ADD22C,0.600000*%
G04 #@! TD*
G04 #@! TA.AperFunction,Conductor*
%ADD23C,0.800000*%
G04 #@! TD*
G04 #@! TA.AperFunction,Conductor*
%ADD24C,0.200000*%
G04 #@! TD*
G04 #@! TA.AperFunction,Conductor*
%ADD25C,1.000000*%
G04 #@! TD*
G04 APERTURE END LIST*
D10*
X164150000Y-107390000D03*
X164150000Y-108660000D03*
X164150001Y-109930000D03*
X164150000Y-111200000D03*
X164150001Y-112470000D03*
X164150000Y-113740000D03*
X164150000Y-115010000D03*
D11*
X170875000Y-108425000D03*
X170875000Y-113975000D03*
D12*
X173300000Y-111200000D03*
D11*
X175725000Y-108425000D03*
X175725000Y-113975000D03*
D13*
X123788049Y-124149286D03*
D14*
X132788049Y-117799286D03*
D15*
X153100000Y-120000000D03*
X153100000Y-126400000D03*
D16*
X145043802Y-100769343D03*
X155543804Y-100769343D03*
D17*
X142240000Y-116840000D03*
D15*
X175500000Y-119900000D03*
X175500000Y-126300000D03*
X170300000Y-119900000D03*
X170300000Y-126300000D03*
X142800000Y-120000000D03*
X142800000Y-126400000D03*
X148000000Y-119991314D03*
X148000000Y-126391314D03*
D17*
X175700000Y-100450000D03*
D14*
X132788785Y-99898090D03*
D13*
X123788785Y-106248090D03*
D18*
X160693884Y-108947499D03*
X160693884Y-110672501D03*
X170925000Y-102649998D03*
X170925000Y-104375000D03*
D15*
X165100000Y-119900000D03*
X165100000Y-126300000D03*
D17*
X139801246Y-92362297D03*
D15*
X158200000Y-120000000D03*
X158200000Y-126400000D03*
D19*
X164143221Y-103818560D03*
X168703220Y-103818559D03*
X166423221Y-103818559D03*
D20*
X164898221Y-99193559D03*
X167948221Y-99193559D03*
D21*
X166423221Y-97518559D03*
D20*
X164898222Y-95843559D03*
X167948221Y-95843559D03*
D17*
X177000000Y-94675000D03*
D22*
X164000000Y-98800000D03*
X168800000Y-100200000D03*
X145400000Y-126400000D03*
X164000000Y-94800000D03*
X166423221Y-97518559D03*
X166400000Y-94800000D03*
X168800000Y-98800000D03*
X150700000Y-126400000D03*
X164000000Y-96200000D03*
X172900000Y-126300000D03*
X166400000Y-96200000D03*
X167700000Y-126300000D03*
X166423221Y-97518559D03*
X168800000Y-97600000D03*
X162800000Y-111200000D03*
X166423221Y-97518559D03*
X164000000Y-100200000D03*
X155800000Y-126400000D03*
X164000000Y-97600000D03*
X168800000Y-96200000D03*
X166400000Y-100200000D03*
X166400000Y-98800000D03*
X168800000Y-94800000D03*
X164143221Y-103818560D03*
X168703220Y-103818559D03*
X160332793Y-113740000D03*
X156116974Y-113716974D03*
D23*
X161094004Y-100769343D02*
X164143221Y-103818560D01*
X155543804Y-100769343D02*
X161094004Y-100769343D01*
D24*
X165325000Y-105175000D02*
X166925000Y-106775000D01*
X165325000Y-102932036D02*
X165325000Y-105175000D01*
X165838477Y-102418559D02*
X165325000Y-102932036D01*
X166925000Y-109455001D02*
X166450001Y-109930000D01*
X170925000Y-102649998D02*
X170693561Y-102418559D01*
X166925000Y-106775000D02*
X166925000Y-109455001D01*
X170693561Y-102418559D02*
X165838477Y-102418559D01*
X166450001Y-109930000D02*
X164150001Y-109930000D01*
D23*
X170300000Y-126300000D02*
X175500000Y-126300000D01*
X145400000Y-126400000D02*
X147991314Y-126400000D01*
X167725000Y-110175000D02*
X166700000Y-111200000D01*
X150691314Y-126391314D02*
X150700000Y-126400000D01*
X167503220Y-104898558D02*
X167503220Y-105027568D01*
X155800000Y-126400000D02*
X158200000Y-126400000D01*
X161301319Y-111200000D02*
X164100000Y-111200000D01*
X147991314Y-126400000D02*
X148000000Y-126391314D01*
X165100000Y-126300000D02*
X170300000Y-126300000D01*
X167725000Y-105249349D02*
X167725000Y-110175000D01*
X167503220Y-105027568D02*
X167725000Y-105249349D01*
D24*
X163829662Y-94925000D02*
X166423221Y-97518559D01*
D23*
X177000000Y-94675000D02*
X169116780Y-94675000D01*
X160693884Y-110592565D02*
X161301319Y-111200000D01*
X142800000Y-126400000D02*
X145400000Y-126400000D01*
X164100000Y-111200000D02*
X164150000Y-111200000D01*
X150700000Y-126400000D02*
X153100000Y-126400000D01*
X148000000Y-126391314D02*
X150691314Y-126391314D01*
X166700000Y-111200000D02*
X164150000Y-111200000D01*
X153100000Y-126400000D02*
X155800000Y-126400000D01*
D24*
X169116780Y-94675000D02*
X167948221Y-95843559D01*
D23*
X166423221Y-103818559D02*
X167503220Y-104898558D01*
X160981383Y-108660000D02*
X164150000Y-108659999D01*
X160218884Y-108947499D02*
X158200000Y-110966383D01*
X158200000Y-110966383D02*
X158200000Y-120000000D01*
X160693884Y-108947499D02*
X160218884Y-108947499D01*
X160693884Y-108947499D02*
X160981383Y-108660000D01*
D25*
X164143221Y-103818560D02*
X164175001Y-103850340D01*
D23*
X163961781Y-104000000D02*
X164143221Y-103818560D01*
X169259661Y-104375000D02*
X168703220Y-103818559D01*
X175700000Y-100450000D02*
X174850000Y-100450000D01*
X174850000Y-100450000D02*
X170925000Y-104375000D01*
X170925000Y-104374999D02*
X169259661Y-104375000D01*
D25*
X164175001Y-103850340D02*
X164175001Y-107365000D01*
D24*
X166450001Y-113740000D02*
X164150000Y-113740000D01*
D23*
X144949999Y-107949999D02*
X144949999Y-101654669D01*
X167400000Y-115600000D02*
X167400000Y-114461544D01*
X152400000Y-110000000D02*
X147000000Y-110000000D01*
X156116974Y-113716974D02*
X152400000Y-110000000D01*
X170300000Y-119900000D02*
X175500000Y-119900000D01*
X164150000Y-113740000D02*
X160332793Y-113740000D01*
X144949999Y-101654669D02*
X145004668Y-101600000D01*
X147000000Y-110000000D02*
X144949999Y-107949999D01*
X166678456Y-113740000D02*
X164150000Y-113740000D01*
X165100000Y-119900000D02*
X165100000Y-117900000D01*
X165100000Y-117900000D02*
X167400000Y-115600000D01*
X165100000Y-119900000D02*
X170300000Y-119900000D01*
X167400000Y-114461544D02*
X166678456Y-113740000D01*
G04 #@! TA.AperFunction,Conductor*
G36*
X160141207Y-114620032D02*
G01*
X160229132Y-114637522D01*
X160244101Y-114640500D01*
X160562050Y-114640500D01*
X160629089Y-114660185D01*
X160674844Y-114712989D01*
X160686011Y-114761392D01*
X160871830Y-122173573D01*
X160853832Y-122241085D01*
X160802191Y-122288149D01*
X160748535Y-122300679D01*
X119236594Y-122523634D01*
X119169450Y-122504310D01*
X119123412Y-122451753D01*
X119111928Y-122399636D01*
X119111928Y-114750562D01*
X119131613Y-114683523D01*
X119184417Y-114637768D01*
X119235895Y-114626563D01*
X160117011Y-114617652D01*
X160141207Y-114620032D01*
G37*
G04 #@! TD.AperFunction*
G04 #@! TA.AperFunction,Conductor*
G36*
X150018311Y-86267200D02*
G01*
X150064066Y-86320004D01*
X150075250Y-86369157D01*
X150418538Y-104420446D01*
X150400131Y-104487848D01*
X150348207Y-104534599D01*
X150291883Y-104546775D01*
X136818544Y-104255876D01*
X119235450Y-104188126D01*
X119168487Y-104168183D01*
X119122936Y-104115203D01*
X119111928Y-104064127D01*
X119111928Y-86371515D01*
X119131613Y-86304476D01*
X119184417Y-86258721D01*
X119235928Y-86247515D01*
X149951272Y-86247515D01*
X150018311Y-86267200D01*
G37*
G04 #@! TD.AperFunction*
M02*
