G04 #@! TF.GenerationSoftware,KiCad,Pcbnew,8.0.5*
G04 #@! TF.CreationDate,2025-01-13T22:45:19-08:00*
G04 #@! TF.ProjectId,12v converter,31327620-636f-46e7-9665-727465722e6b,rev?*
G04 #@! TF.SameCoordinates,Original*
G04 #@! TF.FileFunction,Copper,L2,Bot*
G04 #@! TF.FilePolarity,Positive*
%FSLAX46Y46*%
G04 Gerber Fmt 4.6, Leading zero omitted, Abs format (unit mm)*
G04 Created by KiCad (PCBNEW 8.0.5) date 2025-01-13 22:45:19*
%MOMM*%
%LPD*%
G01*
G04 APERTURE LIST*
G04 #@! TA.AperFunction,ComponentPad*
%ADD10C,2.100000*%
G04 #@! TD*
G04 #@! TA.AperFunction,ComponentPad*
%ADD11R,2.100000X2.100000*%
G04 #@! TD*
G04 #@! TA.AperFunction,ViaPad*
%ADD12C,0.600000*%
G04 #@! TD*
G04 #@! TA.AperFunction,Conductor*
%ADD13C,0.200000*%
G04 #@! TD*
G04 #@! TA.AperFunction,Conductor*
%ADD14C,0.800000*%
G04 #@! TD*
G04 APERTURE END LIST*
D10*
X123788049Y-124149286D03*
D11*
X132788049Y-117799286D03*
X132788785Y-99898090D03*
D10*
X123788785Y-106248090D03*
D12*
X164000000Y-98800000D03*
X168800000Y-100200000D03*
X145400000Y-126400000D03*
X164000000Y-94800000D03*
X166423221Y-97518559D03*
X166400000Y-94800000D03*
X168800000Y-98800000D03*
X150700000Y-126400000D03*
X164000000Y-96200000D03*
X172900000Y-126300000D03*
X166400000Y-96200000D03*
X167700000Y-126300000D03*
X166423221Y-97518559D03*
X168800000Y-97600000D03*
X162800000Y-111200000D03*
X166423221Y-97518559D03*
X164000000Y-100200000D03*
X155800000Y-126400000D03*
X164000000Y-97600000D03*
X168800000Y-96200000D03*
X166400000Y-100200000D03*
X166400000Y-98800000D03*
X168800000Y-94800000D03*
X164143221Y-103818560D03*
X168703220Y-103818559D03*
X160332793Y-113740000D03*
X156116974Y-113716974D03*
D13*
X164143222Y-103818559D02*
X164143221Y-103818560D01*
X168703220Y-103818559D02*
X164143222Y-103818559D01*
D14*
X160309767Y-113716974D02*
X160332793Y-113740000D01*
X156116974Y-113716974D02*
X160309767Y-113716974D01*
G04 #@! TA.AperFunction,Conductor*
G36*
X179342539Y-86267200D02*
G01*
X179388294Y-86320004D01*
X179399500Y-86371515D01*
X179399500Y-131075500D01*
X179379815Y-131142539D01*
X179327011Y-131188294D01*
X179275500Y-131199500D01*
X119235928Y-131199500D01*
X119168889Y-131179815D01*
X119123134Y-131127011D01*
X119111928Y-131075500D01*
X119111928Y-116701421D01*
X131237549Y-116701421D01*
X131237549Y-118897156D01*
X131237550Y-118897162D01*
X131243957Y-118956769D01*
X131294251Y-119091614D01*
X131294255Y-119091621D01*
X131380501Y-119206830D01*
X131380504Y-119206833D01*
X131495713Y-119293079D01*
X131495720Y-119293083D01*
X131630566Y-119343377D01*
X131630565Y-119343377D01*
X131637493Y-119344121D01*
X131690176Y-119349786D01*
X133885921Y-119349785D01*
X133945532Y-119343377D01*
X134080380Y-119293082D01*
X134195595Y-119206832D01*
X134281845Y-119091617D01*
X134332140Y-118956769D01*
X134338549Y-118897159D01*
X134338548Y-116701414D01*
X134332140Y-116641803D01*
X134281845Y-116506955D01*
X134281844Y-116506954D01*
X134281842Y-116506950D01*
X134195596Y-116391741D01*
X134195593Y-116391738D01*
X134080384Y-116305492D01*
X134080377Y-116305488D01*
X133945531Y-116255194D01*
X133945532Y-116255194D01*
X133885932Y-116248787D01*
X133885930Y-116248786D01*
X133885922Y-116248786D01*
X133885913Y-116248786D01*
X131690178Y-116248786D01*
X131690172Y-116248787D01*
X131630565Y-116255194D01*
X131495720Y-116305488D01*
X131495713Y-116305492D01*
X131380504Y-116391738D01*
X131380501Y-116391741D01*
X131294255Y-116506950D01*
X131294251Y-116506957D01*
X131243957Y-116641803D01*
X131237550Y-116701402D01*
X131237550Y-116701409D01*
X131237549Y-116701421D01*
X119111928Y-116701421D01*
X119111928Y-113628278D01*
X155216474Y-113628278D01*
X155216474Y-113805669D01*
X155251077Y-113979632D01*
X155251080Y-113979641D01*
X155318957Y-114143514D01*
X155318964Y-114143527D01*
X155417509Y-114291008D01*
X155417512Y-114291012D01*
X155542935Y-114416435D01*
X155542939Y-114416438D01*
X155690420Y-114514983D01*
X155690433Y-114514990D01*
X155813337Y-114565897D01*
X155854308Y-114582868D01*
X155854310Y-114582868D01*
X155854315Y-114582870D01*
X156028278Y-114617473D01*
X156028281Y-114617474D01*
X156028283Y-114617474D01*
X160116129Y-114617474D01*
X160140320Y-114619857D01*
X160244099Y-114640499D01*
X160244101Y-114640500D01*
X160244102Y-114640500D01*
X160421486Y-114640500D01*
X160421487Y-114640499D01*
X160595459Y-114605895D01*
X160759340Y-114538013D01*
X160906829Y-114439464D01*
X161032257Y-114314036D01*
X161130806Y-114166547D01*
X161198688Y-114002666D01*
X161233293Y-113828692D01*
X161233293Y-113651309D01*
X161198688Y-113477334D01*
X161130806Y-113313454D01*
X161130804Y-113313451D01*
X161130802Y-113313447D01*
X161032257Y-113165965D01*
X160883805Y-113017512D01*
X160883804Y-113017511D01*
X160883803Y-113017510D01*
X160824726Y-112978037D01*
X160824725Y-112978035D01*
X160736311Y-112918959D01*
X160736309Y-112918958D01*
X160654374Y-112885020D01*
X160654373Y-112885020D01*
X160572433Y-112851079D01*
X160572425Y-112851077D01*
X160398463Y-112816474D01*
X160398459Y-112816474D01*
X160398458Y-112816474D01*
X156028283Y-112816474D01*
X156028280Y-112816474D01*
X155854315Y-112851077D01*
X155854306Y-112851080D01*
X155690433Y-112918957D01*
X155690420Y-112918964D01*
X155542939Y-113017509D01*
X155542935Y-113017512D01*
X155417512Y-113142935D01*
X155417509Y-113142939D01*
X155318964Y-113290420D01*
X155318957Y-113290433D01*
X155251080Y-113454306D01*
X155251077Y-113454315D01*
X155216474Y-113628278D01*
X119111928Y-113628278D01*
X119111928Y-103818556D01*
X163337656Y-103818556D01*
X163337656Y-103818563D01*
X163357851Y-103997809D01*
X163357852Y-103997814D01*
X163417432Y-104168083D01*
X163513404Y-104320821D01*
X163513405Y-104320822D01*
X163640959Y-104448376D01*
X163640961Y-104448377D01*
X163793695Y-104544347D01*
X163793699Y-104544349D01*
X163963963Y-104603927D01*
X163963966Y-104603928D01*
X163963971Y-104603929D01*
X164143217Y-104624125D01*
X164143221Y-104624125D01*
X164143225Y-104624125D01*
X164322470Y-104603929D01*
X164322473Y-104603928D01*
X164322476Y-104603928D01*
X164492743Y-104544349D01*
X164645483Y-104448376D01*
X164645489Y-104448369D01*
X164648317Y-104446115D01*
X164650498Y-104445224D01*
X164651379Y-104444671D01*
X164651475Y-104444825D01*
X164713003Y-104419704D01*
X164725634Y-104419059D01*
X168120808Y-104419059D01*
X168187847Y-104438744D01*
X168198123Y-104446114D01*
X168200956Y-104448373D01*
X168200958Y-104448375D01*
X168353698Y-104544348D01*
X168523965Y-104603927D01*
X168523970Y-104603928D01*
X168703216Y-104624124D01*
X168703220Y-104624124D01*
X168703224Y-104624124D01*
X168882469Y-104603928D01*
X168882472Y-104603927D01*
X168882475Y-104603927D01*
X169052742Y-104544348D01*
X169205482Y-104448375D01*
X169333036Y-104320821D01*
X169429009Y-104168081D01*
X169488588Y-103997814D01*
X169508785Y-103818559D01*
X169488588Y-103639304D01*
X169429009Y-103469037D01*
X169333036Y-103316297D01*
X169205482Y-103188743D01*
X169052743Y-103092770D01*
X168882474Y-103033190D01*
X168882469Y-103033189D01*
X168703224Y-103012994D01*
X168703216Y-103012994D01*
X168523970Y-103033189D01*
X168523965Y-103033190D01*
X168353696Y-103092770D01*
X168200956Y-103188744D01*
X168198123Y-103191004D01*
X168195944Y-103191893D01*
X168195062Y-103192448D01*
X168194964Y-103192293D01*
X168133437Y-103217414D01*
X168120808Y-103218059D01*
X164725632Y-103218059D01*
X164658593Y-103198374D01*
X164648318Y-103191005D01*
X164645483Y-103188744D01*
X164492744Y-103092771D01*
X164322475Y-103033191D01*
X164322470Y-103033190D01*
X164143225Y-103012995D01*
X164143217Y-103012995D01*
X163963971Y-103033190D01*
X163963966Y-103033191D01*
X163793697Y-103092771D01*
X163640958Y-103188744D01*
X163513405Y-103316297D01*
X163417432Y-103469036D01*
X163357852Y-103639305D01*
X163357851Y-103639310D01*
X163337656Y-103818556D01*
X119111928Y-103818556D01*
X119111928Y-98800225D01*
X131238285Y-98800225D01*
X131238285Y-100995960D01*
X131238286Y-100995966D01*
X131244693Y-101055573D01*
X131294987Y-101190418D01*
X131294991Y-101190425D01*
X131381237Y-101305634D01*
X131381240Y-101305637D01*
X131496449Y-101391883D01*
X131496456Y-101391887D01*
X131631302Y-101442181D01*
X131631301Y-101442181D01*
X131638229Y-101442925D01*
X131690912Y-101448590D01*
X133886657Y-101448589D01*
X133946268Y-101442181D01*
X134081116Y-101391886D01*
X134196331Y-101305636D01*
X134282581Y-101190421D01*
X134332876Y-101055573D01*
X134339285Y-100995963D01*
X134339284Y-98800218D01*
X134332876Y-98740607D01*
X134282581Y-98605759D01*
X134282580Y-98605758D01*
X134282578Y-98605754D01*
X134196332Y-98490545D01*
X134196329Y-98490542D01*
X134081120Y-98404296D01*
X134081113Y-98404292D01*
X133946267Y-98353998D01*
X133946268Y-98353998D01*
X133886668Y-98347591D01*
X133886666Y-98347590D01*
X133886658Y-98347590D01*
X133886649Y-98347590D01*
X131690914Y-98347590D01*
X131690908Y-98347591D01*
X131631301Y-98353998D01*
X131496456Y-98404292D01*
X131496449Y-98404296D01*
X131381240Y-98490542D01*
X131381237Y-98490545D01*
X131294991Y-98605754D01*
X131294987Y-98605761D01*
X131244693Y-98740607D01*
X131238286Y-98800206D01*
X131238286Y-98800213D01*
X131238285Y-98800225D01*
X119111928Y-98800225D01*
X119111928Y-86371515D01*
X119131613Y-86304476D01*
X119184417Y-86258721D01*
X119235928Y-86247515D01*
X179275500Y-86247515D01*
X179342539Y-86267200D01*
G37*
G04 #@! TD.AperFunction*
M02*
