%TF.GenerationSoftware,KiCad,Pcbnew,8.0.5*%
%TF.CreationDate,2025-02-04T03:07:30-08:00*%
%TF.ProjectId,12v converter,31327620-636f-46e7-9665-727465722e6b,rev?*%
%TF.SameCoordinates,Original*%
%TF.FileFunction,Drillmap*%
%TF.FilePolarity,Positive*%
%FSLAX45Y45*%
G04 Gerber Fmt 4.5, Leading zero omitted, Abs format (unit mm)*
G04 Created by KiCad (PCBNEW 8.0.5) date 2025-02-04 03:07:30*
%MOMM*%
%LPD*%
G01*
G04 APERTURE LIST*
%ADD10C,0.200000*%
%ADD11C,0.220000*%
G04 APERTURE END LIST*
D10*
X11861143Y-8574702D02*
X18430000Y-8574702D01*
X18430000Y-13170000D01*
X11861143Y-13170000D01*
X11861143Y-8574702D01*
D11*
X12030000Y-12787500D02*
X12250000Y-13007500D01*
X12250000Y-12787500D02*
X12030000Y-13007500D01*
X12075000Y-8775000D02*
X12295000Y-8995000D01*
X12295000Y-8775000D02*
X12075000Y-8995000D01*
X18005000Y-12720000D02*
X18225000Y-12940000D01*
X18225000Y-12720000D02*
X18005000Y-12940000D01*
X18030000Y-8775000D02*
X18250000Y-8995000D01*
X18250000Y-8775000D02*
X18030000Y-8995000D01*
D10*
X12111920Y-13491484D02*
X12111920Y-13291484D01*
X12111920Y-13291484D02*
X12159539Y-13291484D01*
X12159539Y-13291484D02*
X12188110Y-13301008D01*
X12188110Y-13301008D02*
X12207158Y-13320055D01*
X12207158Y-13320055D02*
X12216681Y-13339103D01*
X12216681Y-13339103D02*
X12226205Y-13377198D01*
X12226205Y-13377198D02*
X12226205Y-13405769D01*
X12226205Y-13405769D02*
X12216681Y-13443865D01*
X12216681Y-13443865D02*
X12207158Y-13462912D01*
X12207158Y-13462912D02*
X12188110Y-13481960D01*
X12188110Y-13481960D02*
X12159539Y-13491484D01*
X12159539Y-13491484D02*
X12111920Y-13491484D01*
X12311920Y-13491484D02*
X12311920Y-13358150D01*
X12311920Y-13396246D02*
X12321443Y-13377198D01*
X12321443Y-13377198D02*
X12330967Y-13367674D01*
X12330967Y-13367674D02*
X12350015Y-13358150D01*
X12350015Y-13358150D02*
X12369062Y-13358150D01*
X12435729Y-13491484D02*
X12435729Y-13358150D01*
X12435729Y-13291484D02*
X12426205Y-13301008D01*
X12426205Y-13301008D02*
X12435729Y-13310531D01*
X12435729Y-13310531D02*
X12445253Y-13301008D01*
X12445253Y-13301008D02*
X12435729Y-13291484D01*
X12435729Y-13291484D02*
X12435729Y-13310531D01*
X12559539Y-13491484D02*
X12540491Y-13481960D01*
X12540491Y-13481960D02*
X12530967Y-13462912D01*
X12530967Y-13462912D02*
X12530967Y-13291484D01*
X12664300Y-13491484D02*
X12645253Y-13481960D01*
X12645253Y-13481960D02*
X12635729Y-13462912D01*
X12635729Y-13462912D02*
X12635729Y-13291484D01*
X12892872Y-13491484D02*
X12892872Y-13291484D01*
X12892872Y-13291484D02*
X12959539Y-13434341D01*
X12959539Y-13434341D02*
X13026205Y-13291484D01*
X13026205Y-13291484D02*
X13026205Y-13491484D01*
X13207158Y-13491484D02*
X13207158Y-13386722D01*
X13207158Y-13386722D02*
X13197634Y-13367674D01*
X13197634Y-13367674D02*
X13178586Y-13358150D01*
X13178586Y-13358150D02*
X13140491Y-13358150D01*
X13140491Y-13358150D02*
X13121443Y-13367674D01*
X13207158Y-13481960D02*
X13188110Y-13491484D01*
X13188110Y-13491484D02*
X13140491Y-13491484D01*
X13140491Y-13491484D02*
X13121443Y-13481960D01*
X13121443Y-13481960D02*
X13111920Y-13462912D01*
X13111920Y-13462912D02*
X13111920Y-13443865D01*
X13111920Y-13443865D02*
X13121443Y-13424817D01*
X13121443Y-13424817D02*
X13140491Y-13415293D01*
X13140491Y-13415293D02*
X13188110Y-13415293D01*
X13188110Y-13415293D02*
X13207158Y-13405769D01*
X13302396Y-13358150D02*
X13302396Y-13558150D01*
X13302396Y-13367674D02*
X13321443Y-13358150D01*
X13321443Y-13358150D02*
X13359539Y-13358150D01*
X13359539Y-13358150D02*
X13378586Y-13367674D01*
X13378586Y-13367674D02*
X13388110Y-13377198D01*
X13388110Y-13377198D02*
X13397634Y-13396246D01*
X13397634Y-13396246D02*
X13397634Y-13453388D01*
X13397634Y-13453388D02*
X13388110Y-13472436D01*
X13388110Y-13472436D02*
X13378586Y-13481960D01*
X13378586Y-13481960D02*
X13359539Y-13491484D01*
X13359539Y-13491484D02*
X13321443Y-13491484D01*
X13321443Y-13491484D02*
X13302396Y-13481960D01*
X13483348Y-13472436D02*
X13492872Y-13481960D01*
X13492872Y-13481960D02*
X13483348Y-13491484D01*
X13483348Y-13491484D02*
X13473824Y-13481960D01*
X13473824Y-13481960D02*
X13483348Y-13472436D01*
X13483348Y-13472436D02*
X13483348Y-13491484D01*
X13483348Y-13367674D02*
X13492872Y-13377198D01*
X13492872Y-13377198D02*
X13483348Y-13386722D01*
X13483348Y-13386722D02*
X13473824Y-13377198D01*
X13473824Y-13377198D02*
X13483348Y-13367674D01*
X13483348Y-13367674D02*
X13483348Y-13386722D01*
X11651143Y-13720000D02*
X11851143Y-13920000D01*
X11851143Y-13720000D02*
X11651143Y-13920000D01*
X12102396Y-13730531D02*
X12111920Y-13721008D01*
X12111920Y-13721008D02*
X12130967Y-13711484D01*
X12130967Y-13711484D02*
X12178586Y-13711484D01*
X12178586Y-13711484D02*
X12197634Y-13721008D01*
X12197634Y-13721008D02*
X12207158Y-13730531D01*
X12207158Y-13730531D02*
X12216681Y-13749579D01*
X12216681Y-13749579D02*
X12216681Y-13768627D01*
X12216681Y-13768627D02*
X12207158Y-13797198D01*
X12207158Y-13797198D02*
X12092872Y-13911484D01*
X12092872Y-13911484D02*
X12216681Y-13911484D01*
X12302396Y-13892436D02*
X12311920Y-13901960D01*
X12311920Y-13901960D02*
X12302396Y-13911484D01*
X12302396Y-13911484D02*
X12292872Y-13901960D01*
X12292872Y-13901960D02*
X12302396Y-13892436D01*
X12302396Y-13892436D02*
X12302396Y-13911484D01*
X12388110Y-13730531D02*
X12397634Y-13721008D01*
X12397634Y-13721008D02*
X12416681Y-13711484D01*
X12416681Y-13711484D02*
X12464301Y-13711484D01*
X12464301Y-13711484D02*
X12483348Y-13721008D01*
X12483348Y-13721008D02*
X12492872Y-13730531D01*
X12492872Y-13730531D02*
X12502396Y-13749579D01*
X12502396Y-13749579D02*
X12502396Y-13768627D01*
X12502396Y-13768627D02*
X12492872Y-13797198D01*
X12492872Y-13797198D02*
X12378586Y-13911484D01*
X12378586Y-13911484D02*
X12502396Y-13911484D01*
X12626205Y-13711484D02*
X12645253Y-13711484D01*
X12645253Y-13711484D02*
X12664301Y-13721008D01*
X12664301Y-13721008D02*
X12673824Y-13730531D01*
X12673824Y-13730531D02*
X12683348Y-13749579D01*
X12683348Y-13749579D02*
X12692872Y-13787674D01*
X12692872Y-13787674D02*
X12692872Y-13835293D01*
X12692872Y-13835293D02*
X12683348Y-13873388D01*
X12683348Y-13873388D02*
X12673824Y-13892436D01*
X12673824Y-13892436D02*
X12664301Y-13901960D01*
X12664301Y-13901960D02*
X12645253Y-13911484D01*
X12645253Y-13911484D02*
X12626205Y-13911484D01*
X12626205Y-13911484D02*
X12607158Y-13901960D01*
X12607158Y-13901960D02*
X12597634Y-13892436D01*
X12597634Y-13892436D02*
X12588110Y-13873388D01*
X12588110Y-13873388D02*
X12578586Y-13835293D01*
X12578586Y-13835293D02*
X12578586Y-13787674D01*
X12578586Y-13787674D02*
X12588110Y-13749579D01*
X12588110Y-13749579D02*
X12597634Y-13730531D01*
X12597634Y-13730531D02*
X12607158Y-13721008D01*
X12607158Y-13721008D02*
X12626205Y-13711484D01*
X12816681Y-13711484D02*
X12835729Y-13711484D01*
X12835729Y-13711484D02*
X12854777Y-13721008D01*
X12854777Y-13721008D02*
X12864301Y-13730531D01*
X12864301Y-13730531D02*
X12873824Y-13749579D01*
X12873824Y-13749579D02*
X12883348Y-13787674D01*
X12883348Y-13787674D02*
X12883348Y-13835293D01*
X12883348Y-13835293D02*
X12873824Y-13873388D01*
X12873824Y-13873388D02*
X12864301Y-13892436D01*
X12864301Y-13892436D02*
X12854777Y-13901960D01*
X12854777Y-13901960D02*
X12835729Y-13911484D01*
X12835729Y-13911484D02*
X12816681Y-13911484D01*
X12816681Y-13911484D02*
X12797634Y-13901960D01*
X12797634Y-13901960D02*
X12788110Y-13892436D01*
X12788110Y-13892436D02*
X12778586Y-13873388D01*
X12778586Y-13873388D02*
X12769062Y-13835293D01*
X12769062Y-13835293D02*
X12769062Y-13787674D01*
X12769062Y-13787674D02*
X12778586Y-13749579D01*
X12778586Y-13749579D02*
X12788110Y-13730531D01*
X12788110Y-13730531D02*
X12797634Y-13721008D01*
X12797634Y-13721008D02*
X12816681Y-13711484D01*
X12969062Y-13911484D02*
X12969062Y-13778150D01*
X12969062Y-13797198D02*
X12978586Y-13787674D01*
X12978586Y-13787674D02*
X12997634Y-13778150D01*
X12997634Y-13778150D02*
X13026205Y-13778150D01*
X13026205Y-13778150D02*
X13045253Y-13787674D01*
X13045253Y-13787674D02*
X13054777Y-13806722D01*
X13054777Y-13806722D02*
X13054777Y-13911484D01*
X13054777Y-13806722D02*
X13064301Y-13787674D01*
X13064301Y-13787674D02*
X13083348Y-13778150D01*
X13083348Y-13778150D02*
X13111920Y-13778150D01*
X13111920Y-13778150D02*
X13130967Y-13787674D01*
X13130967Y-13787674D02*
X13140491Y-13806722D01*
X13140491Y-13806722D02*
X13140491Y-13911484D01*
X13235729Y-13911484D02*
X13235729Y-13778150D01*
X13235729Y-13797198D02*
X13245253Y-13787674D01*
X13245253Y-13787674D02*
X13264301Y-13778150D01*
X13264301Y-13778150D02*
X13292872Y-13778150D01*
X13292872Y-13778150D02*
X13311920Y-13787674D01*
X13311920Y-13787674D02*
X13321443Y-13806722D01*
X13321443Y-13806722D02*
X13321443Y-13911484D01*
X13321443Y-13806722D02*
X13330967Y-13787674D01*
X13330967Y-13787674D02*
X13350015Y-13778150D01*
X13350015Y-13778150D02*
X13378586Y-13778150D01*
X13378586Y-13778150D02*
X13397634Y-13787674D01*
X13397634Y-13787674D02*
X13407158Y-13806722D01*
X13407158Y-13806722D02*
X13407158Y-13911484D01*
X13797634Y-13701960D02*
X13626205Y-13959103D01*
X14054777Y-13711484D02*
X14073825Y-13711484D01*
X14073825Y-13711484D02*
X14092872Y-13721008D01*
X14092872Y-13721008D02*
X14102396Y-13730531D01*
X14102396Y-13730531D02*
X14111920Y-13749579D01*
X14111920Y-13749579D02*
X14121444Y-13787674D01*
X14121444Y-13787674D02*
X14121444Y-13835293D01*
X14121444Y-13835293D02*
X14111920Y-13873388D01*
X14111920Y-13873388D02*
X14102396Y-13892436D01*
X14102396Y-13892436D02*
X14092872Y-13901960D01*
X14092872Y-13901960D02*
X14073825Y-13911484D01*
X14073825Y-13911484D02*
X14054777Y-13911484D01*
X14054777Y-13911484D02*
X14035729Y-13901960D01*
X14035729Y-13901960D02*
X14026205Y-13892436D01*
X14026205Y-13892436D02*
X14016682Y-13873388D01*
X14016682Y-13873388D02*
X14007158Y-13835293D01*
X14007158Y-13835293D02*
X14007158Y-13787674D01*
X14007158Y-13787674D02*
X14016682Y-13749579D01*
X14016682Y-13749579D02*
X14026205Y-13730531D01*
X14026205Y-13730531D02*
X14035729Y-13721008D01*
X14035729Y-13721008D02*
X14054777Y-13711484D01*
X14207158Y-13892436D02*
X14216682Y-13901960D01*
X14216682Y-13901960D02*
X14207158Y-13911484D01*
X14207158Y-13911484D02*
X14197634Y-13901960D01*
X14197634Y-13901960D02*
X14207158Y-13892436D01*
X14207158Y-13892436D02*
X14207158Y-13911484D01*
X14340491Y-13711484D02*
X14359539Y-13711484D01*
X14359539Y-13711484D02*
X14378586Y-13721008D01*
X14378586Y-13721008D02*
X14388110Y-13730531D01*
X14388110Y-13730531D02*
X14397634Y-13749579D01*
X14397634Y-13749579D02*
X14407158Y-13787674D01*
X14407158Y-13787674D02*
X14407158Y-13835293D01*
X14407158Y-13835293D02*
X14397634Y-13873388D01*
X14397634Y-13873388D02*
X14388110Y-13892436D01*
X14388110Y-13892436D02*
X14378586Y-13901960D01*
X14378586Y-13901960D02*
X14359539Y-13911484D01*
X14359539Y-13911484D02*
X14340491Y-13911484D01*
X14340491Y-13911484D02*
X14321444Y-13901960D01*
X14321444Y-13901960D02*
X14311920Y-13892436D01*
X14311920Y-13892436D02*
X14302396Y-13873388D01*
X14302396Y-13873388D02*
X14292872Y-13835293D01*
X14292872Y-13835293D02*
X14292872Y-13787674D01*
X14292872Y-13787674D02*
X14302396Y-13749579D01*
X14302396Y-13749579D02*
X14311920Y-13730531D01*
X14311920Y-13730531D02*
X14321444Y-13721008D01*
X14321444Y-13721008D02*
X14340491Y-13711484D01*
X14521444Y-13797198D02*
X14502396Y-13787674D01*
X14502396Y-13787674D02*
X14492872Y-13778150D01*
X14492872Y-13778150D02*
X14483348Y-13759103D01*
X14483348Y-13759103D02*
X14483348Y-13749579D01*
X14483348Y-13749579D02*
X14492872Y-13730531D01*
X14492872Y-13730531D02*
X14502396Y-13721008D01*
X14502396Y-13721008D02*
X14521444Y-13711484D01*
X14521444Y-13711484D02*
X14559539Y-13711484D01*
X14559539Y-13711484D02*
X14578586Y-13721008D01*
X14578586Y-13721008D02*
X14588110Y-13730531D01*
X14588110Y-13730531D02*
X14597634Y-13749579D01*
X14597634Y-13749579D02*
X14597634Y-13759103D01*
X14597634Y-13759103D02*
X14588110Y-13778150D01*
X14588110Y-13778150D02*
X14578586Y-13787674D01*
X14578586Y-13787674D02*
X14559539Y-13797198D01*
X14559539Y-13797198D02*
X14521444Y-13797198D01*
X14521444Y-13797198D02*
X14502396Y-13806722D01*
X14502396Y-13806722D02*
X14492872Y-13816246D01*
X14492872Y-13816246D02*
X14483348Y-13835293D01*
X14483348Y-13835293D02*
X14483348Y-13873388D01*
X14483348Y-13873388D02*
X14492872Y-13892436D01*
X14492872Y-13892436D02*
X14502396Y-13901960D01*
X14502396Y-13901960D02*
X14521444Y-13911484D01*
X14521444Y-13911484D02*
X14559539Y-13911484D01*
X14559539Y-13911484D02*
X14578586Y-13901960D01*
X14578586Y-13901960D02*
X14588110Y-13892436D01*
X14588110Y-13892436D02*
X14597634Y-13873388D01*
X14597634Y-13873388D02*
X14597634Y-13835293D01*
X14597634Y-13835293D02*
X14588110Y-13816246D01*
X14588110Y-13816246D02*
X14578586Y-13806722D01*
X14578586Y-13806722D02*
X14559539Y-13797198D01*
X14769063Y-13711484D02*
X14730967Y-13711484D01*
X14730967Y-13711484D02*
X14711920Y-13721008D01*
X14711920Y-13721008D02*
X14702396Y-13730531D01*
X14702396Y-13730531D02*
X14683348Y-13759103D01*
X14683348Y-13759103D02*
X14673825Y-13797198D01*
X14673825Y-13797198D02*
X14673825Y-13873388D01*
X14673825Y-13873388D02*
X14683348Y-13892436D01*
X14683348Y-13892436D02*
X14692872Y-13901960D01*
X14692872Y-13901960D02*
X14711920Y-13911484D01*
X14711920Y-13911484D02*
X14750015Y-13911484D01*
X14750015Y-13911484D02*
X14769063Y-13901960D01*
X14769063Y-13901960D02*
X14778586Y-13892436D01*
X14778586Y-13892436D02*
X14788110Y-13873388D01*
X14788110Y-13873388D02*
X14788110Y-13825769D01*
X14788110Y-13825769D02*
X14778586Y-13806722D01*
X14778586Y-13806722D02*
X14769063Y-13797198D01*
X14769063Y-13797198D02*
X14750015Y-13787674D01*
X14750015Y-13787674D02*
X14711920Y-13787674D01*
X14711920Y-13787674D02*
X14692872Y-13797198D01*
X14692872Y-13797198D02*
X14683348Y-13806722D01*
X14683348Y-13806722D02*
X14673825Y-13825769D01*
X14959539Y-13711484D02*
X14921444Y-13711484D01*
X14921444Y-13711484D02*
X14902396Y-13721008D01*
X14902396Y-13721008D02*
X14892872Y-13730531D01*
X14892872Y-13730531D02*
X14873825Y-13759103D01*
X14873825Y-13759103D02*
X14864301Y-13797198D01*
X14864301Y-13797198D02*
X14864301Y-13873388D01*
X14864301Y-13873388D02*
X14873825Y-13892436D01*
X14873825Y-13892436D02*
X14883348Y-13901960D01*
X14883348Y-13901960D02*
X14902396Y-13911484D01*
X14902396Y-13911484D02*
X14940491Y-13911484D01*
X14940491Y-13911484D02*
X14959539Y-13901960D01*
X14959539Y-13901960D02*
X14969063Y-13892436D01*
X14969063Y-13892436D02*
X14978586Y-13873388D01*
X14978586Y-13873388D02*
X14978586Y-13825769D01*
X14978586Y-13825769D02*
X14969063Y-13806722D01*
X14969063Y-13806722D02*
X14959539Y-13797198D01*
X14959539Y-13797198D02*
X14940491Y-13787674D01*
X14940491Y-13787674D02*
X14902396Y-13787674D01*
X14902396Y-13787674D02*
X14883348Y-13797198D01*
X14883348Y-13797198D02*
X14873825Y-13806722D01*
X14873825Y-13806722D02*
X14864301Y-13825769D01*
X15054777Y-13711484D02*
X15054777Y-13749579D01*
X15130967Y-13711484D02*
X15130967Y-13749579D01*
X15426206Y-13987674D02*
X15416682Y-13978150D01*
X15416682Y-13978150D02*
X15397634Y-13949579D01*
X15397634Y-13949579D02*
X15388110Y-13930531D01*
X15388110Y-13930531D02*
X15378587Y-13901960D01*
X15378587Y-13901960D02*
X15369063Y-13854341D01*
X15369063Y-13854341D02*
X15369063Y-13816246D01*
X15369063Y-13816246D02*
X15378587Y-13768627D01*
X15378587Y-13768627D02*
X15388110Y-13740055D01*
X15388110Y-13740055D02*
X15397634Y-13721008D01*
X15397634Y-13721008D02*
X15416682Y-13692436D01*
X15416682Y-13692436D02*
X15426206Y-13682912D01*
X15588110Y-13778150D02*
X15588110Y-13911484D01*
X15540491Y-13701960D02*
X15492872Y-13844817D01*
X15492872Y-13844817D02*
X15616682Y-13844817D01*
X15845253Y-13911484D02*
X15845253Y-13711484D01*
X15930968Y-13911484D02*
X15930968Y-13806722D01*
X15930968Y-13806722D02*
X15921444Y-13787674D01*
X15921444Y-13787674D02*
X15902396Y-13778150D01*
X15902396Y-13778150D02*
X15873825Y-13778150D01*
X15873825Y-13778150D02*
X15854777Y-13787674D01*
X15854777Y-13787674D02*
X15845253Y-13797198D01*
X16054777Y-13911484D02*
X16035729Y-13901960D01*
X16035729Y-13901960D02*
X16026206Y-13892436D01*
X16026206Y-13892436D02*
X16016682Y-13873388D01*
X16016682Y-13873388D02*
X16016682Y-13816246D01*
X16016682Y-13816246D02*
X16026206Y-13797198D01*
X16026206Y-13797198D02*
X16035729Y-13787674D01*
X16035729Y-13787674D02*
X16054777Y-13778150D01*
X16054777Y-13778150D02*
X16083349Y-13778150D01*
X16083349Y-13778150D02*
X16102396Y-13787674D01*
X16102396Y-13787674D02*
X16111920Y-13797198D01*
X16111920Y-13797198D02*
X16121444Y-13816246D01*
X16121444Y-13816246D02*
X16121444Y-13873388D01*
X16121444Y-13873388D02*
X16111920Y-13892436D01*
X16111920Y-13892436D02*
X16102396Y-13901960D01*
X16102396Y-13901960D02*
X16083349Y-13911484D01*
X16083349Y-13911484D02*
X16054777Y-13911484D01*
X16235729Y-13911484D02*
X16216682Y-13901960D01*
X16216682Y-13901960D02*
X16207158Y-13882912D01*
X16207158Y-13882912D02*
X16207158Y-13711484D01*
X16388110Y-13901960D02*
X16369063Y-13911484D01*
X16369063Y-13911484D02*
X16330968Y-13911484D01*
X16330968Y-13911484D02*
X16311920Y-13901960D01*
X16311920Y-13901960D02*
X16302396Y-13882912D01*
X16302396Y-13882912D02*
X16302396Y-13806722D01*
X16302396Y-13806722D02*
X16311920Y-13787674D01*
X16311920Y-13787674D02*
X16330968Y-13778150D01*
X16330968Y-13778150D02*
X16369063Y-13778150D01*
X16369063Y-13778150D02*
X16388110Y-13787674D01*
X16388110Y-13787674D02*
X16397634Y-13806722D01*
X16397634Y-13806722D02*
X16397634Y-13825769D01*
X16397634Y-13825769D02*
X16302396Y-13844817D01*
X16473825Y-13901960D02*
X16492872Y-13911484D01*
X16492872Y-13911484D02*
X16530968Y-13911484D01*
X16530968Y-13911484D02*
X16550015Y-13901960D01*
X16550015Y-13901960D02*
X16559539Y-13882912D01*
X16559539Y-13882912D02*
X16559539Y-13873388D01*
X16559539Y-13873388D02*
X16550015Y-13854341D01*
X16550015Y-13854341D02*
X16530968Y-13844817D01*
X16530968Y-13844817D02*
X16502396Y-13844817D01*
X16502396Y-13844817D02*
X16483349Y-13835293D01*
X16483349Y-13835293D02*
X16473825Y-13816246D01*
X16473825Y-13816246D02*
X16473825Y-13806722D01*
X16473825Y-13806722D02*
X16483349Y-13787674D01*
X16483349Y-13787674D02*
X16502396Y-13778150D01*
X16502396Y-13778150D02*
X16530968Y-13778150D01*
X16530968Y-13778150D02*
X16550015Y-13787674D01*
X16626206Y-13987674D02*
X16635730Y-13978150D01*
X16635730Y-13978150D02*
X16654777Y-13949579D01*
X16654777Y-13949579D02*
X16664301Y-13930531D01*
X16664301Y-13930531D02*
X16673825Y-13901960D01*
X16673825Y-13901960D02*
X16683349Y-13854341D01*
X16683349Y-13854341D02*
X16683349Y-13816246D01*
X16683349Y-13816246D02*
X16673825Y-13768627D01*
X16673825Y-13768627D02*
X16664301Y-13740055D01*
X16664301Y-13740055D02*
X16654777Y-13721008D01*
X16654777Y-13721008D02*
X16635730Y-13692436D01*
X16635730Y-13692436D02*
X16626206Y-13682912D01*
X16988111Y-13987674D02*
X16978587Y-13978150D01*
X16978587Y-13978150D02*
X16959539Y-13949579D01*
X16959539Y-13949579D02*
X16950015Y-13930531D01*
X16950015Y-13930531D02*
X16940492Y-13901960D01*
X16940492Y-13901960D02*
X16930968Y-13854341D01*
X16930968Y-13854341D02*
X16930968Y-13816246D01*
X16930968Y-13816246D02*
X16940492Y-13768627D01*
X16940492Y-13768627D02*
X16950015Y-13740055D01*
X16950015Y-13740055D02*
X16959539Y-13721008D01*
X16959539Y-13721008D02*
X16978587Y-13692436D01*
X16978587Y-13692436D02*
X16988111Y-13682912D01*
X17064301Y-13778150D02*
X17064301Y-13911484D01*
X17064301Y-13797198D02*
X17073825Y-13787674D01*
X17073825Y-13787674D02*
X17092872Y-13778150D01*
X17092872Y-13778150D02*
X17121444Y-13778150D01*
X17121444Y-13778150D02*
X17140492Y-13787674D01*
X17140492Y-13787674D02*
X17150015Y-13806722D01*
X17150015Y-13806722D02*
X17150015Y-13911484D01*
X17273825Y-13911484D02*
X17254777Y-13901960D01*
X17254777Y-13901960D02*
X17245253Y-13892436D01*
X17245253Y-13892436D02*
X17235730Y-13873388D01*
X17235730Y-13873388D02*
X17235730Y-13816246D01*
X17235730Y-13816246D02*
X17245253Y-13797198D01*
X17245253Y-13797198D02*
X17254777Y-13787674D01*
X17254777Y-13787674D02*
X17273825Y-13778150D01*
X17273825Y-13778150D02*
X17302396Y-13778150D01*
X17302396Y-13778150D02*
X17321444Y-13787674D01*
X17321444Y-13787674D02*
X17330968Y-13797198D01*
X17330968Y-13797198D02*
X17340492Y-13816246D01*
X17340492Y-13816246D02*
X17340492Y-13873388D01*
X17340492Y-13873388D02*
X17330968Y-13892436D01*
X17330968Y-13892436D02*
X17321444Y-13901960D01*
X17321444Y-13901960D02*
X17302396Y-13911484D01*
X17302396Y-13911484D02*
X17273825Y-13911484D01*
X17397634Y-13778150D02*
X17473825Y-13778150D01*
X17426206Y-13711484D02*
X17426206Y-13882912D01*
X17426206Y-13882912D02*
X17435730Y-13901960D01*
X17435730Y-13901960D02*
X17454777Y-13911484D01*
X17454777Y-13911484D02*
X17473825Y-13911484D01*
X17692873Y-13778150D02*
X17692873Y-13978150D01*
X17692873Y-13787674D02*
X17711920Y-13778150D01*
X17711920Y-13778150D02*
X17750015Y-13778150D01*
X17750015Y-13778150D02*
X17769063Y-13787674D01*
X17769063Y-13787674D02*
X17778587Y-13797198D01*
X17778587Y-13797198D02*
X17788111Y-13816246D01*
X17788111Y-13816246D02*
X17788111Y-13873388D01*
X17788111Y-13873388D02*
X17778587Y-13892436D01*
X17778587Y-13892436D02*
X17769063Y-13901960D01*
X17769063Y-13901960D02*
X17750015Y-13911484D01*
X17750015Y-13911484D02*
X17711920Y-13911484D01*
X17711920Y-13911484D02*
X17692873Y-13901960D01*
X17902396Y-13911484D02*
X17883349Y-13901960D01*
X17883349Y-13901960D02*
X17873825Y-13882912D01*
X17873825Y-13882912D02*
X17873825Y-13711484D01*
X18064301Y-13911484D02*
X18064301Y-13806722D01*
X18064301Y-13806722D02*
X18054777Y-13787674D01*
X18054777Y-13787674D02*
X18035730Y-13778150D01*
X18035730Y-13778150D02*
X17997634Y-13778150D01*
X17997634Y-13778150D02*
X17978587Y-13787674D01*
X18064301Y-13901960D02*
X18045254Y-13911484D01*
X18045254Y-13911484D02*
X17997634Y-13911484D01*
X17997634Y-13911484D02*
X17978587Y-13901960D01*
X17978587Y-13901960D02*
X17969063Y-13882912D01*
X17969063Y-13882912D02*
X17969063Y-13863865D01*
X17969063Y-13863865D02*
X17978587Y-13844817D01*
X17978587Y-13844817D02*
X17997634Y-13835293D01*
X17997634Y-13835293D02*
X18045254Y-13835293D01*
X18045254Y-13835293D02*
X18064301Y-13825769D01*
X18130968Y-13778150D02*
X18207158Y-13778150D01*
X18159539Y-13711484D02*
X18159539Y-13882912D01*
X18159539Y-13882912D02*
X18169063Y-13901960D01*
X18169063Y-13901960D02*
X18188111Y-13911484D01*
X18188111Y-13911484D02*
X18207158Y-13911484D01*
X18350015Y-13901960D02*
X18330968Y-13911484D01*
X18330968Y-13911484D02*
X18292873Y-13911484D01*
X18292873Y-13911484D02*
X18273825Y-13901960D01*
X18273825Y-13901960D02*
X18264301Y-13882912D01*
X18264301Y-13882912D02*
X18264301Y-13806722D01*
X18264301Y-13806722D02*
X18273825Y-13787674D01*
X18273825Y-13787674D02*
X18292873Y-13778150D01*
X18292873Y-13778150D02*
X18330968Y-13778150D01*
X18330968Y-13778150D02*
X18350015Y-13787674D01*
X18350015Y-13787674D02*
X18359539Y-13806722D01*
X18359539Y-13806722D02*
X18359539Y-13825769D01*
X18359539Y-13825769D02*
X18264301Y-13844817D01*
X18530968Y-13911484D02*
X18530968Y-13711484D01*
X18530968Y-13901960D02*
X18511920Y-13911484D01*
X18511920Y-13911484D02*
X18473825Y-13911484D01*
X18473825Y-13911484D02*
X18454777Y-13901960D01*
X18454777Y-13901960D02*
X18445254Y-13892436D01*
X18445254Y-13892436D02*
X18435730Y-13873388D01*
X18435730Y-13873388D02*
X18435730Y-13816246D01*
X18435730Y-13816246D02*
X18445254Y-13797198D01*
X18445254Y-13797198D02*
X18454777Y-13787674D01*
X18454777Y-13787674D02*
X18473825Y-13778150D01*
X18473825Y-13778150D02*
X18511920Y-13778150D01*
X18511920Y-13778150D02*
X18530968Y-13787674D01*
X18607158Y-13987674D02*
X18616682Y-13978150D01*
X18616682Y-13978150D02*
X18635730Y-13949579D01*
X18635730Y-13949579D02*
X18645254Y-13930531D01*
X18645254Y-13930531D02*
X18654777Y-13901960D01*
X18654777Y-13901960D02*
X18664301Y-13854341D01*
X18664301Y-13854341D02*
X18664301Y-13816246D01*
X18664301Y-13816246D02*
X18654777Y-13768627D01*
X18654777Y-13768627D02*
X18645254Y-13740055D01*
X18645254Y-13740055D02*
X18635730Y-13721008D01*
X18635730Y-13721008D02*
X18616682Y-13692436D01*
X18616682Y-13692436D02*
X18607158Y-13682912D01*
M02*
